<?xml version="1.0" encoding="UTF-8"?>
<svg version="1.1" xmlns="http://www.w3.org/2000/svg" width="1080" height="231">
<path d="M0 0 C2.80712891 1.21484375 2.80712891 1.21484375 5.7265625 2.9375 C6.82750244 3.5776001 7.92844238 4.2177002 9.06274414 4.87719727 C10.25027441 5.58461079 11.43769016 6.29221658 12.625 7 C13.86046659 7.72390797 15.09672755 8.44646177 16.33374023 9.16772461 C18.91573373 10.67435907 21.49417491 12.18684358 24.07080078 13.70263672 C27.92253551 15.96223983 31.79864231 18.17701337 35.68359375 20.37890625 C36.3060498 20.73205902 36.92850586 21.08521179 37.56982422 21.44906616 C40.54452992 23.13622359 43.52026261 24.82154951 46.49658203 26.50585938 C47.58181152 27.12396484 48.66704102 27.74207031 49.78515625 28.37890625 C50.72238525 28.9107251 51.65961426 29.44254395 52.62524414 29.99047852 C53.73891357 30.65362061 54.85258301 31.3167627 56 32 C57.37027596 32.57147514 57.37027596 32.57147514 58.76823425 33.15449524 C62.15441977 34.79372872 64.4291839 36.23606189 67 39 C68.81853576 44.92234677 68.86728235 50.75078387 68.91796875 56.91015625 C68.95845906 58.68268257 69.00025476 60.4551795 69.04328918 62.22764587 C69.11805383 65.9411071 69.1465468 69.65179246 69.14819336 73.3659668 C69.15624097 77.15793701 69.24617041 80.93323967 69.41479492 84.72143555 C70.74121139 114.97396784 70.74121139 114.97396784 64.76394653 123.00396729 C59.17835311 127.84166645 52.86737035 130.51743596 45.94442749 132.92892456 C42.02919097 134.35314495 38.6534909 136.32643867 35.12890625 138.515625 C32.35859277 140.09361828 29.58709842 141.66946394 26.8132019 143.2411499 C21.03409782 146.51643964 15.26817606 149.79810207 9.625 153.3046875 C8.8405249 153.78776367 8.0560498 154.27083984 7.24780273 154.76855469 C5.84155329 155.64143168 4.44429405 156.52905224 3.05883789 157.43457031 C-1.29694989 160.1287765 -1.29694989 160.1287765 -4.3671875 159.56640625 C-5.23601562 159.04949219 -6.10484375 158.53257812 -7 158 C-7.63848877 157.64905273 -8.27697754 157.29810547 -8.93481445 156.93652344 C-11.37221577 155.59458039 -13.77978626 154.20698636 -16.1875 152.8125 C-17.55116699 152.02770264 -17.55116699 152.02770264 -18.94238281 151.22705078 C-20.91669877 150.09017218 -22.89013405 148.95176312 -24.86279297 147.81201172 C-28.09513287 145.94505244 -31.33048239 144.08339586 -34.56640625 142.22265625 C-41.05022501 138.49203229 -47.52728291 134.74984957 -54 131 C-54.91587891 130.46971191 -55.83175781 129.93942383 -56.77539062 129.39306641 C-59.18590553 127.99513174 -61.59361927 126.59253619 -64 125.1875 C-64.69383789 124.78515137 -65.38767578 124.38280273 -66.10253906 123.96826172 C-68.66332565 122.46645199 -70.89122342 121.10877658 -73 119 C-73.20350603 116.48680478 -73.28322998 114.08332164 -73.2746582 111.56860352 C-73.27976913 110.80259827 -73.28488007 110.03659302 -73.29014587 109.24737549 C-73.30407941 106.70780691 -73.30308228 104.16850858 -73.30078125 101.62890625 C-73.3046662 99.86775104 -73.30900045 98.10659677 -73.31376648 96.34544373 C-73.32123684 92.65075648 -73.32093159 88.95616478 -73.31567383 85.26147461 C-73.30987895 80.52207549 -73.32680657 75.78306713 -73.3500185 71.04373264 C-73.36473651 67.4055095 -73.36563018 63.76738086 -73.36250877 60.12913322 C-73.36302299 58.38159346 -73.36827947 56.63404854 -73.37832069 54.88653755 C-73.39063023 52.44436237 -73.38392687 50.00295354 -73.37231445 47.56079102 C-73.37995819 46.83601059 -73.38760193 46.11123016 -73.39547729 45.36448669 C-73.3438775 40.46550685 -73.3438775 40.46550685 -71.60121155 38.10646057 C-69.67802724 36.77751212 -67.74389642 35.59010208 -65.6953125 34.4609375 C-64.81593018 33.97125488 -63.93654785 33.48157227 -63.03051758 32.97705078 C-62.07169678 32.44837402 -61.11287598 31.91969727 -60.125 31.375 C-50.61860973 26.07113682 -41.19491181 20.64433446 -31.8125 15.125 C-30.90966278 14.59407745 -30.90966278 14.59407745 -29.98858643 14.0524292 C-28.80578474 13.3567752 -27.62314477 12.66084617 -26.44067383 11.96463013 C-24.73369981 10.96099263 -23.02433785 9.96142009 -21.31494141 8.96191406 C-19.08904266 7.64453873 -16.87772725 6.30223266 -14.68115234 4.93652344 C-13.11228271 3.97407715 -13.11228271 3.97407715 -11.51171875 2.9921875 C-10.59221436 2.41581543 -9.67270996 1.83944336 -8.7253418 1.24560547 C-5.47897352 -0.23813286 -3.53671466 -0.43496175 0 0 Z M-8.671875 27.60546875 C-9.64898437 28.17845703 -10.62609375 28.75144531 -11.6328125 29.34179688 C-13.17582031 30.25541992 -13.17582031 30.25541992 -14.75 31.1875 C-15.70132813 31.74630859 -16.65265625 32.30511719 -17.6328125 32.88085938 C-19.7631167 34.13357682 -21.87496488 35.4179642 -23.97216797 36.7253418 C-27.10509679 38.60088438 -30.31655088 39.99638163 -33.68798828 41.39379883 C-44.40731183 45.97423029 -44.40731183 45.97423029 -51.14086914 54.93008423 C-52.74831287 63.36577691 -52.00663716 71.80706681 -51.375 80.3125 C-51.26450813 82.90257856 -51.16415126 85.49311048 -51.07421875 88.08398438 C-50.83304339 94.39929647 -50.46638686 100.69752811 -50 107 C-49.25129639 107.42708252 -48.50259277 107.85416504 -47.73120117 108.29418945 C-46.09219894 109.22934571 -44.45325384 110.16460362 -42.81530762 111.10160828 C-39.65587972 112.90825735 -36.49171321 114.70554207 -33.31762695 116.48632812 C-27.54451417 119.73798444 -21.87431666 122.99268267 -16.4375 126.79296875 C-10.13449897 131.24811936 -10.13449897 131.24811936 -3 134 C2.33786434 132.95598441 5.82207253 130.65378681 10.09472656 127.39648438 C13.38333299 124.98607577 16.95806707 123.07196686 20.5 121.0625 C22.49744731 119.88778754 24.47121648 118.70267529 26.41699219 117.44360352 C28.58840476 116.23003428 30.48166805 115.45646711 32.80957031 114.64819336 C37.31128935 112.873231 41.12250816 111.00933404 44 107 C46.49271016 99.38515734 46.07027976 91.17879983 45.84570312 83.26196289 C45.75002919 79.4386665 45.80412719 75.63789377 45.875 71.81445312 C46.27008136 60.56859525 46.27008136 60.56859525 42.83999634 50.1522522 C39.50361075 46.8442312 35.34662604 45.51492788 31 44 C28.82560214 42.81700977 26.67226929 41.5943906 24.54296875 40.33203125 C22.42607411 39.15597867 20.30758693 37.98278799 18.1875 36.8125 C6.33236448 30.25815015 6.33236448 30.25815015 1.36328125 27.07421875 C-3.33816311 24.1747217 -4.16304325 24.94869105 -8.671875 27.60546875 Z " fill="#FCB204" transform="translate(117,36)"/>
<path d="M0 0 C28.71 0 57.42 0 87 0 C87 9.9 87 19.8 87 30 C83.7 31.65 80.4 33.3 77 35 C81.4472136 38.52174919 81.4472136 38.52174919 89 42 C89 52.56 89 63.12 89 74 C59.63 74 30.26 74 0 74 C0 49.58 0 25.16 0 0 Z M60 3 C59.7014209 3.49443604 59.4028418 3.98887207 59.09521484 4.49829102 C56.79368551 8.0496427 55.10638917 9.76162878 50.88378906 10.67138672 C47.11708912 10.91339284 43.39924673 10.96967763 39.625 10.9375 C38.31660156 10.95361328 37.00820313 10.96972656 35.66015625 10.98632812 C32.44029393 11.02158209 29.22002089 11.01488781 26 11 C26 17.6 26 24.2 26 31 C37.55 31 49.1 31 61 31 C61 21.76 61 12.52 61 3 C60.67 3 60.34 3 60 3 Z M26 42 C26 48.93 26 55.86 26 63 C37.88 63 49.76 63 62 63 C62 56.07 62 49.14 62 42 C50.12 42 38.24 42 26 42 Z " fill="#FEFEFE" transform="translate(229,73)"/>
<path d="M0 0 C0.82862045 0.00359528 1.65724091 0.00719055 2.51097107 0.01089478 C3.81329178 0.01067574 3.81329178 0.01067574 5.141922 0.01045227 C8.02594967 0.01115171 10.9099136 0.01894554 13.79393005 0.02676392 C15.78790247 0.02862799 17.78187535 0.03005194 19.77584839 0.03105164 C25.03498082 0.03487769 30.29408583 0.04470871 35.5532074 0.05575562 C41.85739831 0.06776201 48.16159836 0.07237156 54.46579742 0.07820892 C64.05305865 0.08792042 73.64025965 0.10707637 83.2275238 0.12442017 C83.2275238 24.54442017 83.2275238 48.96442017 83.2275238 74.12442017 C61.05626531 74.16452898 61.05626531 74.16452898 51.63963318 74.17324829 C45.20236899 74.179237 38.76511895 74.18633802 32.3278656 74.19985962 C27.14077537 74.21068761 21.95370031 74.21669681 16.76659966 74.21929741 C14.782961 74.22115182 12.79932322 74.22477273 10.81569099 74.23015022 C8.04743245 74.23735949 5.27923742 74.23841116 2.51097107 74.23794556 C1.68235062 74.24154083 0.85373016 74.24513611 0 74.24884033 C-5.65842404 74.23847233 -5.65842404 74.23847233 -6.7724762 73.12442017 C-6.8721154 70.89054811 -6.90047414 68.65348158 -6.90187073 66.41738892 C-6.90362305 65.7165921 -6.90537537 65.01579529 -6.90718079 64.29376221 C-6.91159886 61.96645668 -6.90866149 59.63922653 -6.9052887 57.31192017 C-6.90596175 55.70148707 -6.90693178 54.09105408 -6.90818787 52.48062134 C-6.90966478 49.10113561 -6.9075105 45.72167627 -6.90284729 42.3421936 C-6.89715 38.00065511 -6.90042904 33.65917843 -6.90641975 29.31764221 C-6.91002555 25.99091116 -6.9088867 22.66419487 -6.90629196 19.33746338 C-6.90562274 17.73620598 -6.90645094 16.13494726 -6.90877151 14.53369141 C-6.91129835 12.29957506 -6.90745704 10.06556017 -6.90187073 7.83145142 C-6.90107513 6.55761597 -6.90027954 5.28378052 -6.89945984 3.97134399 C-6.67498492 -1.0612964 -4.48298596 0.00821423 0 0 Z M55.2275238 3.12442017 C54.78835632 3.86607422 54.78835632 3.86607422 54.34031677 4.62271118 C52.82292799 6.98980199 51.51560354 8.46413669 49.2275238 10.12442017 C44.27009132 11.16130329 39.40255276 11.10178735 34.3525238 11.06192017 C29.6912738 11.08254517 25.0300238 11.10317017 20.2275238 11.12442017 C20.2275238 28.28442017 20.2275238 45.44442017 20.2275238 63.12442017 C32.1075238 63.12442017 43.9875238 63.12442017 56.2275238 63.12442017 C56.2275238 43.32442017 56.2275238 23.52442017 56.2275238 3.12442017 C55.8975238 3.12442017 55.5675238 3.12442017 55.2275238 3.12442017 Z " fill="#FEFEFE" transform="translate(809.7724761962891,72.87557983398438)"/>
<path d="M0 0 C29.37 0 58.74 0 89 0 C89 24.42 89 48.84 89 74 C59.63 74 30.26 74 0 74 C0 49.58 0 25.16 0 0 Z M61 4 C60.18982422 5.45792969 60.18982422 5.45792969 59.36328125 6.9453125 C57.28597227 9.48831543 56.15485579 9.97084214 52.87255859 10.58886719 C48.96461404 10.81653445 45.10284094 10.8814443 41.1875 10.875 C34.1646875 10.936875 34.1646875 10.936875 27 11 C27 28.16 27 45.32 27 63 C38.88 63 50.76 63 63 63 C62.67 43.53 62.34 24.06 62 4 C61.67 4 61.34 4 61 4 Z " fill="#FEFEFE" transform="translate(408,73)"/>
<path d="M0 0 C26.4 0 52.8 0 80 0 C80 14.52 80 29.04 80 44 C74.06 44.495 74.06 44.495 68 45 C68.66386719 46.12277344 69.32773437 47.24554688 70.01171875 48.40234375 C72.68478815 52.92887601 75.34466423 57.46304754 78 62 C78.58652344 62.99902344 79.17304687 63.99804688 79.77734375 65.02734375 C80.22207031 65.80207031 80.66679688 66.57679688 81.125 67.375 C81.49882813 68.02210938 81.87265625 68.66921875 82.2578125 69.3359375 C83 71 83 71 83 74 C73.82828742 75.48761402 63.97686577 76.96437545 55 74 C48.54240469 68.41578737 45.19827349 60.33167067 42.06787109 52.54370117 C41.02243933 49.82849149 41.02243933 49.82849149 39 47 C39 46.01 39 45.02 39 44 C35.04 44 31.08 44 27 44 C27 53.9 27 63.8 27 74 C18.09 74 9.18 74 0 74 C0 49.58 0 25.16 0 0 Z M52 4 C51.38769531 4.97195312 50.77539062 5.94390625 50.14453125 6.9453125 C48.38545249 9.05620701 47.39818263 9.89750091 44.71240234 10.58886719 C42.01897384 10.81455352 39.3913008 10.88154409 36.6875 10.875 C33.490625 10.91625 30.29375 10.9575 27 11 C27 18.26 27 25.52 27 33 C35.91 33 44.82 33 54 33 C54.04125 28.58625 54.0825 24.1725 54.125 19.625 C54.14320801 18.23361816 54.16141602 16.84223633 54.18017578 15.40869141 C54.1851709 14.31733887 54.19016602 13.22598633 54.1953125 12.1015625 C54.20578613 10.98088379 54.21625977 9.86020508 54.22705078 8.70556641 C54.28055323 5.85022157 54.28055323 5.85022157 52 4 Z " fill="#FEFEFE" transform="translate(901,73)"/>
<path d="M0 0 C1.1653125 -0.00128906 2.330625 -0.00257812 3.53125 -0.00390625 C4.7584375 -0.00003906 5.985625 0.00382812 7.25 0.0078125 C9.09078125 0.00201172 9.09078125 0.00201172 10.96875 -0.00390625 C12.71671875 -0.00197266 12.71671875 -0.00197266 14.5 0 C15.57765625 0.00112793 16.6553125 0.00225586 17.765625 0.00341797 C20.25 0.1328125 20.25 0.1328125 21.25 1.1328125 C21.33775605 3.27840077 21.35695219 5.42685671 21.34765625 7.57421875 C21.34515869 8.74927979 21.34266113 9.92434082 21.34008789 11.13500977 C21.33098389 12.63990967 21.32187988 14.14480957 21.3125 15.6953125 C21.291875 20.4596875 21.27125 25.2240625 21.25 30.1328125 C33.13 30.4628125 45.01 30.7928125 57.25 31.1328125 C57.25 20.9028125 57.25 10.6728125 57.25 0.1328125 C65.83 0.1328125 74.41 0.1328125 83.25 0.1328125 C83.25 24.5528125 83.25 48.9728125 83.25 74.1328125 C74.67 74.1328125 66.09 74.1328125 57.25 74.1328125 C56.92 61.2628125 56.59 48.3928125 56.25 35.1328125 C54.27 37.4428125 52.29 39.7528125 50.25 42.1328125 C46.90673828 43.01928711 46.90673828 43.01928711 43.3203125 43.03515625 C41.38671875 43.06899414 41.38671875 43.06899414 39.4140625 43.10351562 C38.06770239 43.09319681 36.72134788 43.08211973 35.375 43.0703125 C34.00517448 43.08343405 32.63537513 43.09968023 31.265625 43.11914062 C27.92605572 43.15441777 24.58957174 43.15790534 21.25 43.1328125 C21.25785522 44.48814087 21.25785522 44.48814087 21.26586914 45.87084961 C21.28287686 49.21232739 21.29543333 52.55375942 21.30493164 55.89526367 C21.30997101 57.34351323 21.31680253 58.79175767 21.32543945 60.23999023 C21.33752247 62.31755838 21.34323211 64.39505947 21.34765625 66.47265625 C21.35551147 68.35005493 21.35551147 68.35005493 21.36352539 70.26538086 C21.25 73.1328125 21.25 73.1328125 20.25 74.1328125 C18.25035018 74.22039253 16.2476389 74.23977826 14.24609375 74.23046875 C12.42368164 74.22563477 12.42368164 74.22563477 10.56445312 74.22070312 C9.28505859 74.21232422 8.00566406 74.20394531 6.6875 74.1953125 C5.40423828 74.19080078 4.12097656 74.18628906 2.79882812 74.18164062 C-0.38416022 74.16980795 -3.56705762 74.15332318 -6.75 74.1328125 C-6.77312484 64.63206925 -6.7909158 55.13133562 -6.80181217 45.63057041 C-6.80704069 41.21944246 -6.81413777 36.8083337 -6.82543945 32.3972168 C-6.83626944 28.14380135 -6.84227707 23.89040441 -6.84487724 19.63697624 C-6.84673129 18.01059617 -6.85035152 16.38421716 -6.85573006 14.75784492 C-6.86294198 12.48771057 -6.86399088 10.21765365 -6.86352539 7.94750977 C-6.865746 6.65289322 -6.86796661 5.35827667 -6.87025452 4.02442932 C-6.66062667 -1.01624123 -4.51289695 0.00472343 0 0 Z " fill="#FEFEFE" transform="translate(711.75,72.8671875)"/>
<path d="M0 0 C8.58 0 17.16 0 26 0 C26.495 14.355 26.495 14.355 27 29 C33.35298646 23.28231219 39.66398368 17.55408723 45.875 11.6875 C46.6071875 10.99849609 47.339375 10.30949219 48.09375 9.59960938 C52.11617102 5.8721976 52.11617102 5.8721976 55.77294922 1.80102539 C58.97677817 -0.78992464 61.31649889 -0.45529367 65.390625 -0.390625 C66.44754547 -0.38213531 66.44754547 -0.38213531 67.52581787 -0.37347412 C69.76791428 -0.35115078 72.00838988 -0.30096754 74.25 -0.25 C75.77341435 -0.22992952 77.29685386 -0.2116797 78.8203125 -0.1953125 C82.5473983 -0.15130118 86.27354087 -0.08230372 90 0 C90 0.99 90 1.98 90 3 C84.65116279 8 84.65116279 8 82 8 C82 8.66 82 9.32 82 10 C80.38281689 11.4328718 78.70376628 12.79624749 77 14.125 C72.6913559 17.56750182 68.74969079 21.12390189 64.91796875 25.08203125 C62.29946884 27.70053116 59.5001382 30.07856936 56.6640625 32.45703125 C54.76915089 34.09388333 54.76915089 34.09388333 53 37 C53.99 37.495 53.99 37.495 55 38 C55 38.66 55 39.32 55 40 C55.53109375 40.20238281 56.0621875 40.40476563 56.609375 40.61328125 C60.04225863 42.60457813 62.50871741 45.34482097 65.25 48.1875 C69.35783216 52.37237542 73.48353824 56.43148759 77.9453125 60.2421875 C80.66064304 62.56518891 83.33653422 64.93049386 86 67.3125 C86.94875 68.15425781 87.8975 68.99601562 88.875 69.86328125 C91 72 91 72 91 74 C86.62619163 74.2497782 82.25629194 74.42978019 77.87744141 74.54931641 C76.39298127 74.5991953 74.90900207 74.66713623 73.42626953 74.75439453 C61.12759744 75.45930831 61.12759744 75.45930831 55.87231445 71.85473633 C53.380703 69.35030629 51.19730831 66.76172495 49 64 C47.6751452 62.77988387 46.32596386 61.58471041 44.9375 60.4375 C41.14002975 57.19350719 37.65487741 53.69414256 34.17578125 50.11328125 C31.92173133 47.92397962 29.45369093 45.96295275 27 44 C26.67 53.9 26.34 63.8 26 74 C17.42 74 8.84 74 0 74 C0 49.58 0 25.16 0 0 Z " fill="#FEFEFE" transform="translate(606,73)"/>
<path d="M0 0 C0.74446381 0.00359528 1.48892761 0.00719055 2.25595093 0.01089478 C3.0363826 0.01074875 3.81681427 0.01060272 4.62089539 0.01045227 C7.21273534 0.01115158 9.80450432 0.01894481 12.39633179 0.02676392 C14.18852194 0.02862803 15.9807126 0.03005196 17.77290344 0.03105164 C22.49938351 0.03487733 27.22583305 0.04470805 31.95230103 0.05575562 C36.77153104 0.06596863 41.59076596 0.07054902 46.41000366 0.07559204 C55.87290773 0.08633027 65.3357891 0.10340731 74.79867554 0.12442017 C74.08194839 4.60396486 72.29490079 6.75602597 69.79867554 11.12442017 C53.62867554 11.12442017 37.45867554 11.12442017 20.79867554 11.12442017 C20.79867554 17.72442017 20.79867554 24.32442017 20.79867554 31.12442017 C37.95867554 31.12442017 55.11867554 31.12442017 72.79867554 31.12442017 C69.61051371 39.09482473 69.61051371 39.09482473 66.79867554 42.12442017 C63.31276589 42.96804896 59.91373324 42.82247638 56.34555054 42.71035767 C55.33019226 42.70186798 54.31483398 42.6933783 53.26870728 42.68463135 C50.02761452 42.65106024 46.7890154 42.57577079 43.54867554 42.49942017 C41.35079482 42.46932551 39.15287507 42.44194884 36.95492554 42.41738892 C31.56777699 42.35635627 26.18601443 42.23895414 20.79867554 42.12442017 C20.79867554 49.05442017 20.79867554 55.98442017 20.79867554 63.12442017 C38.94867554 63.12442017 57.09867554 63.12442017 75.79867554 63.12442017 C73.81867554 66.75442017 71.83867554 70.38442017 69.79867554 74.12442017 C44.71867554 74.12442017 19.63867554 74.12442017 -6.20132446 74.12442017 C-6.22194946 62.10004517 -6.24257446 50.07567017 -6.26382446 37.68692017 C-6.27292847 33.88491089 -6.28203247 30.08290161 -6.29141235 26.16567993 C-6.29592896 21.53640747 -6.29592896 21.53640747 -6.29676819 19.37184143 C-6.29830757 17.8543824 -6.30183238 16.33692462 -6.30690002 14.81947327 C-6.31417885 12.52599957 -6.31523184 10.23260088 -6.31484985 7.93911743 C-6.31707047 6.64450089 -6.31929108 5.34988434 -6.32157898 4.01603699 C-6.11964204 -0.83969964 -4.38132897 0.00892927 0 0 Z " fill="#FEFEFE" transform="translate(998.2013244628906,72.87557983398438)"/>
<path d="M0 0 C29.04 0 58.08 0 88 0 C86.84791557 4.60833772 85.8021355 7.99011981 82 11 C77.82563126 11.98784054 73.74935518 11.8146028 69.48046875 11.68359375 C67.65990715 11.6687368 67.65990715 11.6687368 65.80256653 11.65357971 C61.92964371 11.61442434 58.05956477 11.52658751 54.1875 11.4375 C51.56058783 11.40238821 48.93363119 11.370449 46.30664062 11.34179688 C39.86911951 11.27060786 33.43773833 11.13363345 27 11 C27 27.83 27 44.66 27 62 C58.68 62.495 58.68 62.495 91 63 C89 68 89 68 86 74 C57.62 74 29.24 74 0 74 C0 49.58 0 25.16 0 0 Z " fill="#FEFEFE" transform="translate(506,73)"/>
<path d="M0 0 C8.68965517 3.37931034 8.68965517 3.37931034 10 6 C9.98704916 8.4871629 9.91261128 10.94203426 9.79272461 13.42456055 C9.72664824 15.01350521 9.66210042 16.60251397 9.59886169 18.1915741 C9.56499296 19.03712545 9.53112423 19.88267681 9.49622917 20.75385094 C9.30234992 26.1908873 9.21764769 31.63077237 9.12616634 37.07034588 C9.03999649 41.8426903 8.90718867 46.6041087 8.66625977 51.37133789 C6.82918677 71.72150076 6.82918677 71.72150076 13.42651367 90.12454224 C19.53795376 95.24653884 26.41479174 98.18758576 33.8734436 100.8465271 C37.82974384 102.30611539 41.25654666 104.25059115 44.8203125 106.47265625 C48.07238366 108.32768998 51.32751105 110.17659978 54.58935547 112.0144043 C60.40744966 115.30234887 66.12966186 118.68239352 71.75 122.296875 C73.36237549 123.30995728 73.36237549 123.30995728 75.00732422 124.34350586 C77.03024884 125.62110078 79.03366049 126.93033688 81.01220703 128.27563477 C83.70635781 129.95618498 85.92094873 131.2177796 89 132 C92.86821633 131.09784647 95.75084418 129.22953617 99 127 C100.25532024 126.27495784 101.51538814 125.55803882 102.78125 124.8515625 C104.02259334 124.11232246 105.262103 123.36999673 106.5 122.625 C114.91630957 117.61857246 123.39263984 112.72049379 131.88354492 107.84179688 C137.55167568 104.58091815 143.20386471 101.29700679 148.828125 97.9609375 C149.91794678 97.31672852 151.00776855 96.67251953 152.13061523 96.00878906 C154.206592 94.77973691 156.27919695 93.54496628 158.34790039 92.30371094 C159.28110107 91.75231445 160.21430176 91.20091797 161.17578125 90.6328125 C161.98958252 90.14699707 162.80338379 89.66118164 163.6418457 89.16064453 C166.15908632 87.92170035 168.21008095 87.28541008 171 87 C173.41334173 88.08732979 175.4641029 89.17283861 177.6875 90.5625 C178.29746826 90.92947998 178.90743652 91.29645996 179.53588867 91.67456055 C180.77306843 92.42004689 182.00692381 93.17107954 183.23730469 93.92773438 C184.84107331 94.90332327 186.47018886 95.83693371 188.1015625 96.765625 C188.99617187 97.27609375 189.89078125 97.7865625 190.8125 98.3125 C191.60269531 98.76238281 192.39289063 99.21226562 193.20703125 99.67578125 C195 101 195 101 196 104 C189.86931405 108.04625273 189.86931405 108.04625273 186.13671875 107.84765625 C181.47801443 106.58870377 177.91527573 104.01174971 173.90234375 101.3984375 C170.46534402 99.74238649 169.58072333 99.96323192 166 101 C163.36081816 102.2619802 163.36081816 102.2619802 160.66796875 103.88671875 C159.63478516 104.48806641 158.60160156 105.08941406 157.53710938 105.70898438 C156.43173828 106.36189453 155.32636719 107.01480469 154.1875 107.6875 C153.02057199 108.36980755 151.8532478 109.05143794 150.68554688 109.73242188 C148.28595951 111.13334131 145.88876622 112.53822353 143.49365234 113.94677734 C140.2875788 115.83216499 137.07642104 117.70870518 133.86328125 119.58203125 C132.89076416 120.14994385 131.91824707 120.71785645 130.91625977 121.30297852 C128.97065579 122.43515878 127.02190581 123.56194979 125.07006836 124.68334961 C120.27029338 127.45112618 115.53104344 130.27281724 110.88635254 133.29260254 C108.58473266 134.78146944 106.26074987 136.23310467 103.93359375 137.68164062 C102.29311449 138.72264081 100.68490626 139.81395535 99.078125 140.90625 C96.00148467 142.80560449 93.52415669 144.17662027 90 145 C85.41541198 143.84596443 81.89284495 141.62569915 78 139 C76.6443764 138.21902632 75.284331 137.44562355 73.91796875 136.68359375 C72.67242888 135.9383117 71.42897719 135.18953012 70.1875 134.4375 C63.427544 130.40423587 56.60904593 126.48726401 49.75 122.625 C47.78382494 121.51697894 45.81767919 120.40890588 43.8515625 119.30078125 C42.87864258 118.75244629 41.90572266 118.20411133 40.90332031 117.63916016 C32.91479828 113.12899055 24.95186575 108.57442689 17 104 C16.15985352 103.51805176 15.31970703 103.03610352 14.45410156 102.53955078 C12.04920448 101.15736684 9.64888793 99.76758127 7.25 98.375 C6.52828613 97.96096924 5.80657227 97.54693848 5.06298828 97.12036133 C0.11505571 94.23011142 0.11505571 94.23011142 -1 92 C-1.09856155 89.13708434 -1.13627656 86.29848327 -1.12939453 83.43530273 C-1.13114685 82.54904205 -1.13289917 81.66278137 -1.13470459 80.74966431 C-1.13911728 77.81095439 -1.1361874 74.87230431 -1.1328125 71.93359375 C-1.13348565 69.89860523 -1.13445576 67.86361679 -1.13571167 65.82862854 C-1.1371878 61.56063065 -1.13503656 57.29265367 -1.13037109 53.0246582 C-1.12467025 47.54085091 -1.1279556 42.05709251 -1.13394356 36.57328701 C-1.13754836 32.3707085 -1.13641102 28.16814168 -1.13381577 23.96556282 C-1.13314646 21.94285133 -1.13397505 19.92013879 -1.13629532 17.89742851 C-1.13882091 15.07669109 -1.13498275 12.25603412 -1.12939453 9.43530273 C-1.13141876 8.59112289 -1.13344299 7.74694305 -1.13552856 6.87718201 C-1.11426318 1.11426318 -1.11426318 1.11426318 0 0 Z " fill="#F9B511" transform="translate(25,74)"/>
<path d="M0 0 C3.62530995 1.56889942 6.95695356 3.4542012 10.3203125 5.5078125 C11.83616255 6.41586286 13.35317648 7.32197198 14.87109375 8.2265625 C16.13300537 8.97873047 16.13300537 8.97873047 17.42041016 9.74609375 C22.75030246 12.88982048 28.13163689 15.94416605 33.5078125 19.0078125 C34.70396715 19.69013585 35.90009323 20.3725093 37.09619141 21.05493164 C39.54643758 22.45263074 41.99698522 23.84979935 44.44775391 25.24658203 C50.09908035 28.46765153 55.74834582 31.69232796 61.39682007 34.918396 C63.13314868 35.90981774 64.86991107 36.90047965 66.60668945 37.89111328 C67.68781006 38.50841309 68.76893066 39.12571289 69.8828125 39.76171875 C70.81480469 40.2935376 71.74679688 40.82535645 72.70703125 41.37329102 C73.21047058 41.68863297 73.71390991 42.00397491 74.23260498 42.32887268 C76.31349224 43.51439296 76.31349224 43.51439296 79.21905518 44.42002869 C83.04578068 45.9996942 85.37407536 47.32686371 88.1953125 50.3828125 C90.44025194 57.0888212 89.58481324 64.67111608 89.3671875 71.62890625 C89.34479159 73.72635538 89.32771683 75.82386751 89.31573486 77.92140198 C89.27002507 83.42881148 89.15226013 88.93239191 89.01928711 94.43829346 C88.89628352 100.06185092 88.84167266 105.68603049 88.78125 111.31054688 C88.65274781 122.33631328 88.4480877 133.35924391 88.1953125 144.3828125 C86.51258264 143.75779855 84.84900607 143.08103867 83.1953125 142.3828125 C81.81174309 141.81497795 81.81174309 141.81497795 80.40022278 141.235672 C78.1953125 139.3828125 78.1953125 139.3828125 77.71757507 136.0032196 C77.75853548 134.58020703 77.82706511 133.15783482 77.91674805 131.73706055 C77.94481537 130.95931778 77.97288269 130.18157501 78.00180054 129.38026428 C78.06327974 127.68895679 78.13477787 125.99799092 78.21503258 124.30747032 C78.3736994 120.69614659 78.44163278 117.08492817 78.51483631 113.47102833 C78.6519525 106.7459005 78.82388591 100.02683826 79.15844727 93.30834961 C81.09215822 72.90530788 81.09215822 72.90530788 74.90493774 54.29406738 C69.31611673 49.46351898 63.11272244 46.75888225 56.15942383 44.43721008 C51.79923015 42.88619625 47.96862828 40.61863875 44.0078125 38.2578125 C42.57300658 37.4599794 41.13581165 36.66641363 39.6953125 35.87890625 C34.60926491 33.06730106 29.55630053 30.19869337 24.5078125 27.3203125 C23.62512695 26.81983398 22.74244141 26.31935547 21.83300781 25.80371094 C17.7427639 23.47143405 13.70146942 21.09999371 9.7421875 18.55078125 C8.72451294 17.90411499 8.72451294 17.90411499 7.6862793 17.24438477 C6.44172029 16.44634813 5.20773393 15.63145892 3.98754883 14.79663086 C1.06247332 12.92858396 -0.36757387 12.30385004 -3.83203125 12.9296875 C-6.99152458 14.47414416 -9.94506772 16.14512208 -12.9296875 18.0078125 C-20.23790241 22.49632245 -27.66353713 26.76626325 -35.1171875 31.0078125 C-37.54186786 32.38896995 -39.9662796 33.77059844 -42.390625 35.15234375 C-42.99971207 35.49940872 -43.60879913 35.84647369 -44.23634338 36.20405579 C-50.91727526 40.013123 -57.58111804 43.85164374 -64.2421875 47.6953125 C-65.33120361 48.32324707 -66.42021973 48.95118164 -67.54223633 49.59814453 C-73.06559674 52.76487734 -73.06559674 52.76487734 -78.48388672 56.10498047 C-80.8046875 57.3828125 -80.8046875 57.3828125 -83.12890625 56.83984375 C-84.01191406 56.35902344 -84.89492187 55.87820312 -85.8046875 55.3828125 C-86.38686035 55.07263184 -86.9690332 54.76245117 -87.56884766 54.44287109 C-89.60147372 53.34610101 -91.61026944 52.21340159 -93.6171875 51.0703125 C-94.32552734 50.66949463 -95.03386719 50.26867676 -95.76367188 49.85571289 C-100.52302129 47.14929812 -105.20462083 44.35368889 -109.8046875 41.3828125 C-107.2104917 38.31694474 -105.48945569 36.58441092 -101.59375 35.4375 C-95.91490687 35.35553732 -92.8128521 38.11734246 -88.32226562 41.31054688 C-87.69642578 41.72755859 -87.07058594 42.14457031 -86.42578125 42.57421875 C-85.8733374 42.96810791 -85.32089355 43.36199707 -84.75170898 43.76782227 C-81.6655333 44.7426281 -79.72606451 43.61297399 -76.8046875 42.3828125 C-74.88492431 41.34890082 -72.99579989 40.256609 -71.13671875 39.1171875 C-70.07775391 38.47394531 -69.01878906 37.83070312 -67.92773438 37.16796875 C-66.83525391 36.49636719 -65.74277344 35.82476562 -64.6171875 35.1328125 C-57.67493167 30.88823806 -50.72475712 26.73845008 -43.55786133 22.88378906 C-38.55748055 20.15767919 -33.65536856 17.26219436 -28.7421875 14.3828125 C-27.73091797 13.79242188 -26.71964844 13.20203125 -25.67773438 12.59375 C-20.07940582 9.32054824 -14.50462624 6.01314895 -8.96313477 2.64453125 C-3.22501431 -0.70968281 -3.22501431 -0.70968281 0 0 Z " fill="#F9B411" transform="translate(115.8046875,12.6171875)"/>
<path d="M0 0 C8.58 0 17.16 0 26 0 C26 20.79 26 41.58 26 63 C41.18 63 56.36 63 72 63 C71.01211221 67.93943896 70.23465056 70.24264933 67 74 C63.97540283 74.7215271 63.97540283 74.7215271 60.39550781 74.68115234 C59.39860994 74.68223716 59.39860994 74.68223716 58.38157272 74.68334389 C56.23751562 74.67887719 54.09661908 74.63326471 51.953125 74.5859375 C50.64005371 74.57989502 49.32698242 74.57385254 47.97412109 74.56762695 C43.06576124 74.53621752 38.15784929 74.45244907 33.25 74.375 C16.79125 74.189375 16.79125 74.189375 0 74 C0 49.58 0 25.16 0 0 Z " fill="#FEFEFE" transform="translate(327,73)"/>
<path d="M0 0 C1.65 0.33 3.3 0.66 5 1 C5 31.03 5 61.06 5 92 C2.33333333 90.66666667 -0.33333333 89.33333333 -3 88 C-3.02320381 77.82057905 -3.04095604 67.64116442 -3.05181217 57.46172237 C-3.05702342 52.73464458 -3.06408909 48.00758493 -3.07543945 43.28051758 C-3.08633087 38.71584966 -3.09229008 34.15119915 -3.09487724 29.58651924 C-3.09672023 27.84787281 -3.10031909 26.10922729 -3.10573006 24.3705883 C-3.11302353 21.92924845 -3.11398745 19.48797991 -3.11352539 17.04663086 C-3.11712067 16.33308945 -3.12071594 15.61954803 -3.12442017 14.88438416 C-3.1154383 10.47833696 -2.712747 6.33382742 -2 2 C-1.34 2 -0.68 2 0 2 C0 1.34 0 0.68 0 0 Z " fill="#FCB306" transform="translate(198,63)"/>
<path d="M0 0 C4 1 4 1 7 2 C7.33 29.39 7.66 56.78 8 85 C9.32 85.66 10.64 86.32 12 87 C11.01 88.65 10.02 90.3 9 92 C7.02 91.67 5.04 91.34 3 91 C3.33 88.69 3.66 86.38 4 84 C3.34 84 2.68 84 2 84 C2 84.99 2 85.98 2 87 C1.34 86.67 0.68 86.34 0 86 C0 57.62 0 29.24 0 0 Z " fill="#FCB201" transform="translate(26,77)"/>
<path d="M0 0 C0 0.66 0 1.32 0 2 C-1.546875 2.8353125 -1.546875 2.8353125 -3.125 3.6875 C-9.97285998 7.5766221 -9.97285998 7.5766221 -14 14 C-13.34 14.33 -12.68 14.66 -12 15 C-12.495 13.515 -12.495 13.515 -13 12 C-12.34 12 -11.68 12 -11 12 C-10.505 12.99 -10.505 12.99 -10 14 C-9.34 14 -8.68 14 -8 14 C-8 13.34 -8 12.68 -8 12 C-4.35206816 10.72746564 -0.8063457 9.67170806 3 9 C-0.42857477 11.86477513 -3.87938938 14.20603564 -7.76953125 16.3984375 C-8.89480225 17.03668457 -10.02007324 17.67493164 -11.17944336 18.33251953 C-12.3902635 19.01369974 -13.60128689 19.69451878 -14.8125 20.375 C-17.3320702 21.79450996 -19.85020202 23.21653715 -22.3671875 24.640625 C-23.00319382 25.00016266 -23.63920013 25.35970032 -24.29447937 25.73013306 C-28.5764683 28.16163828 -32.80334339 30.67153499 -37.0078125 33.234375 C-38.09344482 33.89002441 -39.17907715 34.54567383 -40.29760742 35.22119141 C-42.3561401 36.46933991 -44.40619482 37.73160338 -46.4465332 39.00927734 C-47.37038818 39.56566895 -48.29424316 40.12206055 -49.24609375 40.6953125 C-50.04716553 41.19047363 -50.8482373 41.68563477 -51.67358398 42.19580078 C-54 43 -54 43 -56.67089844 42.2109375 C-59.84473758 40.5608073 -62.91602064 38.81410551 -66 37 C-64 36 -64 36 -60.625 36.75 C-57.43989717 37.84831132 -55.49180933 38.80720779 -53 41 C-52.67 40.01 -52.34 39.02 -52 38 C-50.68 38 -49.36 38 -48 38 C-48 37.34 -48 36.68 -48 36 C-45.33333333 34.66666667 -42.66666667 33.33333333 -40 32 C-38.94039062 31.43925781 -38.94039062 31.43925781 -37.859375 30.8671875 C-36 30 -36 30 -34 30 C-34 28.35 -34 26.7 -34 25 C-32.35 25.33 -30.7 25.66 -29 26 C-29 25.01 -29 24.02 -29 23 C-28.34 22.34 -27.68 21.68 -27 21 C-27.66 20.67 -28.32 20.34 -29 20 C-28.34 19.34 -27.68 18.68 -27 18 C-28.32 17.67 -29.64 17.34 -31 17 C-26.51990379 13.85182429 -21.85078176 11.24721285 -17.02734375 8.66015625 C-12.76435109 6.32238608 -8.60084968 3.82391749 -4.43359375 1.3203125 C-2 0 -2 0 0 0 Z " fill="#F8B716" transform="translate(89,27)"/>
<path d="M0 0 C8.68965517 3.37931034 8.68965517 3.37931034 10 6 C10.12226853 8.5622268 10.18565577 11.09908818 10.20532227 13.66259766 C10.21522186 14.45292892 10.22512146 15.24326019 10.23532104 16.05754089 C10.26697122 18.6763507 10.29170733 21.29517866 10.31640625 23.9140625 C10.33697274 25.72724892 10.35796913 27.54043052 10.37937927 29.35360718 C10.43463142 34.13098242 10.48402682 38.90840115 10.53222656 43.68585205 C10.58241866 48.55883668 10.63811667 53.43175798 10.69335938 58.3046875 C10.80097938 67.8697376 10.90241581 77.43484262 11 87 C13.97 88.65 16.94 90.3 20 92 C18.515 92.495 18.515 92.495 17 93 C14.03 91.35 11.06 89.7 8 88 C8 60.61 8 33.22 8 5 C5.69 4.67 3.38 4.34 1 4 C0.67 33.04 0.34 62.08 0 92 C-0.33 92 -0.66 92 -1 92 C-1.02312202 80.15234827 -1.04091437 68.30470186 -1.05181217 56.4570322 C-1.05704131 50.95629138 -1.06413951 45.45556595 -1.07543945 39.95483398 C-1.08626725 34.6510344 -1.0922766 29.34724965 -1.09487724 24.04343987 C-1.09673169 22.01514388 -1.10035267 19.98684874 -1.10573006 17.95855904 C-1.11293906 15.12803486 -1.113991 12.29757282 -1.11352539 9.46704102 C-1.11712067 8.61971909 -1.12071594 7.77239716 -1.12442017 6.8993988 C-1.11405216 1.11405216 -1.11405216 1.11405216 0 0 Z " fill="#F4C343" transform="translate(25,74)"/>
<path d="M0 0 C2.1875 1.4375 2.1875 1.4375 4 3 C3.835 3.78375 3.67 4.5675 3.5 5.375 C2.9376293 7.88208039 2.9376293 7.88208039 3 10 C-1.75 9.125 -1.75 9.125 -4 8 C-4 8.66 -4 9.32 -4 10 C-6.64738916 11.4606285 -7.89448334 12 -11 12 C-11 12.66 -11 13.32 -11 14 C-20.41002278 17.62870159 -20.41002278 17.62870159 -25 16 C-24.34 14.68 -23.68 13.36 -23 12 C-21.35 12 -19.7 12 -18 12 C-17.79375 11.21625 -17.5875 10.4325 -17.375 9.625 C-16 7 -16 7 -13.0625 5.875 C-12.051875 5.58625 -11.04125 5.2975 -10 5 C-8.9805881 4.01979625 -7.97753644 3.02196992 -7 2 C-5 1.375 -5 1.375 -3 1 C-2.01 0.67 -1.02 0.34 0 0 Z " fill="#FAB103" transform="translate(196,163)"/>
<path d="M0 0 C0 0.99 0 1.98 0 3 C-0.66 3 -1.32 3 -2 3 C-2.33 4.32 -2.66 5.64 -3 7 C-3.99 6.34 -4.98 5.68 -6 5 C-6 6.65 -6 8.3 -6 10 C-6.66 10 -7.32 10 -8 10 C-8 10.99 -8 11.98 -8 13 C-9.7015625 13.4640625 -9.7015625 13.4640625 -11.4375 13.9375 C-14.78775099 14.62924531 -14.78775099 14.62924531 -16 16 C-17.66617115 16.04063832 -19.33388095 16.042721 -21 16 C-21 16.66 -21 17.32 -21 18 C-21.99 18.33 -22.98 18.66 -24 19 C-24 18.01 -24 17.02 -24 16 C-24.33 16.99 -24.66 17.98 -25 19 C-25.99 18.67 -26.98 18.34 -28 18 C-25.53827024 12.58419453 -20.94165983 9.10644196 -16 6 C-15.01 6 -14.02 6 -13 6 C-13 5.34 -13 4.68 -13 4 C-11.2097939 3.32942113 -9.41778511 2.6636531 -7.625 2 C-6.62726563 1.62875 -5.62953125 1.2575 -4.6015625 0.875 C-2 0 -2 0 0 0 Z " fill="#FBB105" transform="translate(102,23)"/>
<path d="M0 0 C0.66 0.33 1.32 0.66 2 1 C1.01 1.33 0.02 1.66 -1 2 C-2.15061979 5.34725758 -2.12286119 6.63141644 -1 10 C-0.01 10.66 0.98 11.32 2 12 C-0.45518735 13.50537035 -2.9138452 15.00444426 -5.375 16.5 C-6.07367188 16.92925781 -6.77234375 17.35851562 -7.4921875 17.80078125 C-12.7734375 21 -12.7734375 21 -15 21 C-15 20.34 -15 19.68 -15 19 C-14.34 19 -13.68 19 -13 19 C-13.33 17.35 -13.66 15.7 -14 14 C-13.01 14 -12.02 14 -11 14 C-8.84971696 13.05021103 -8.84971696 13.05021103 -7 12 C-7 11.01 -7 10.02 -7 9 C-7.77085938 9.30035156 -8.54171875 9.60070313 -9.3359375 9.91015625 C-10.33882812 10.29042969 -11.34171875 10.67070312 -12.375 11.0625 C-13.37273437 11.44535156 -14.37046875 11.82820313 -15.3984375 12.22265625 C-18 13 -18 13 -20 12 C-8.76953125 5.26171875 -8.76953125 5.26171875 -6.81103516 4.09521484 C-5.23434984 3.14172195 -3.68301081 2.14656226 -2.13671875 1.14453125 C-1.43160156 0.76683594 -0.72648437 0.38914062 0 0 Z " fill="#F6B81C" transform="translate(109,14)"/>
<path d="M0 0 C2.875 0.3125 2.875 0.3125 6 1 C8.25779693 4.3866954 8.24486783 5.51690851 8.22705078 9.48120117 C8.22682419 11.16260445 8.22682419 11.16260445 8.22659302 12.87797546 C8.21627045 14.08742325 8.20594788 15.29687103 8.1953125 16.54296875 C8.1924826 17.78170242 8.18965271 19.0204361 8.18673706 20.29670715 C8.17743186 23.58638087 8.15946791 26.87585863 8.1373291 30.16546631 C8.1168527 33.52369794 8.10773152 36.88195828 8.09765625 40.24023438 C8.07558271 46.82689973 8.04209522 53.41343383 8 60 C6.02 60.495 6.02 60.495 4 61 C4 61.66 4 62.32 4 63 C2.68 62.67 1.36 62.34 0 62 C0.81165619 61.61484726 1.62331238 61.22969452 2.45956421 60.83287048 C5.20600208 59.26088411 5.20600208 59.26088411 5.63491821 56.57814026 C5.63889618 55.61979782 5.64287415 54.66145538 5.64697266 53.67407227 C5.66273346 52.58606827 5.67849426 51.49806427 5.69473267 50.37709045 C5.68461151 49.20206467 5.67449036 48.02703888 5.6640625 46.81640625 C5.66884613 45.60935532 5.67362976 44.40230438 5.67855835 43.15867615 C5.68196336 40.60406188 5.67271927 38.04940439 5.65185547 35.49487305 C5.62512553 31.58088033 5.65157516 27.66976195 5.68359375 23.75585938 C5.68028931 21.27603532 5.67388237 18.79621306 5.6640625 16.31640625 C5.67418365 15.14340469 5.68430481 13.97040314 5.69473267 12.76185608 C5.78021015 6.38372137 5.78021015 6.38372137 2.45849609 1.23022461 C1.64719238 0.82425049 0.83588867 0.41827637 0 0 Z " fill="#EEBB3C" transform="translate(155,84)"/>
<path d="M0 0 C3.78588727 1.51435491 7.00988756 3.03915381 10.51953125 5.0390625 C11.54111328 5.61914062 12.56269531 6.19921875 13.61523438 6.796875 C14.67033203 7.40015625 15.72542969 8.0034375 16.8125 8.625 C17.88693359 9.23601562 18.96136719 9.84703125 20.06835938 10.4765625 C22.71386076 11.98155885 25.3576625 13.48945791 28 15 C28 15.33 28 15.66 28 16 C25.6875 16.1875 25.6875 16.1875 23 16 C21.97803008 15.02246356 20.98020375 14.0194119 20 13 C15.91195995 11.22259128 13.29585623 10.73651287 9 12 C9.99 12.66 10.98 13.32 12 14 C12 14.66 12 15.32 12 16 C12.66 16 13.32 16 14 16 C14 16.99 14 17.98 14 19 C8.03347646 17.42986223 3.17090975 14.24970218 -2 11 C1 10 1 10 4 11 C4.66 10.34 5.32 9.68 6 9 C4.02 6.03 2.04 3.06 0 0 Z " fill="#F6B925" transform="translate(48,169)"/>
<path d="M0 0 C0.66 0.33 1.32 0.66 2 1 C1.67 19.15 1.34 37.3 1 56 C2.65 56.66 4.3 57.32 6 58 C6.66 58.66 7.32 59.32 8 60 C4.32013404 60.204437 2.21639654 59.74565111 -1 58 C-1.02312883 50.58540058 -1.04091785 43.17080889 -1.05181217 35.75618076 C-1.05703982 32.31359652 -1.06413531 28.87103688 -1.07543945 25.4284668 C-1.08834235 21.47444957 -1.09322918 17.52044244 -1.09765625 13.56640625 C-1.10281754 12.32476212 -1.10797882 11.08311798 -1.11329651 9.80384827 C-1.11337204 8.66274094 -1.11344757 7.52163361 -1.11352539 6.34594727 C-1.115746 5.335569 -1.11796661 4.32519073 -1.12025452 3.28419495 C-1 1 -1 1 0 0 Z " fill="#F1BC38" transform="translate(66,87)"/>
<path d="M0 0 C0.66 0.33 1.32 0.66 2 1 C1.34 2.65 0.68 4.3 0 6 C-0.66 6 -1.32 6 -2 6 C-1.67 30.75 -1.34 55.5 -1 81 C0.98 81.33 2.96 81.66 5 82 C5.66 83.98 6.32 85.96 7 88 C2.96758914 86.61745913 0.00509119 85.05324174 -3 82 C-3.49545798 79.24153938 -3.66601654 77.09680352 -3.61523438 74.34155273 C-3.62078339 73.57525543 -3.6263324 72.80895813 -3.63204956 72.0194397 C-3.64384671 69.49018537 -3.61957439 66.96272233 -3.59375 64.43359375 C-3.59203901 62.67529889 -3.59210446 60.91700147 -3.59387207 59.15870667 C-3.59221887 55.4757544 -3.57351949 51.79341087 -3.54199219 48.1105957 C-3.50228512 43.38687955 -3.49795019 38.6639597 -3.50545502 33.9401083 C-3.50852233 30.31041654 -3.49641325 26.68090426 -3.47932434 23.05125618 C-3.47228759 21.30931791 -3.46917062 19.5673593 -3.47001648 17.82540703 C-3.46822143 15.39291377 -3.44686693 12.96138031 -3.41992188 10.52905273 C-3.42285248 9.8074144 -3.42578308 9.08577606 -3.42880249 8.3422699 C-3.34498175 3.44541288 -3.34498175 3.44541288 -1.47375488 1.0294342 C-0.98741577 0.68972092 -0.50107666 0.35000763 0 0 Z " fill="#EFBF3F" transform="translate(47,73)"/>
<path d="M0 0 C2.50290327 1.14862695 4.66962723 2.50856143 7 4 C7 4.66 7 5.32 7 6 C8.32 6 9.64 6 11 6 C10.67 7.65 10.34 9.3 10 11 C5.06729471 12.6442351 2.45975807 11.18615592 -2 9 C-2 8.01 -2 7.02 -2 6 C-2.66 6 -3.32 6 -4 6 C-5.38232443 4.37373596 -6.71937515 2.7074998 -8 1 C-5.12063188 -0.43968406 -3.20992381 -0.302823 0 0 Z " fill="#FAB104" transform="translate(64,179)"/>
<path d="M0 0 C0 0.66 0 1.32 0 2 C1.175625 2.185625 1.175625 2.185625 2.375 2.375 C5 3 5 3 7 5 C9.06874034 5.6425235 9.06874034 5.6425235 11 6 C13 12.75 13 12.75 13 15 C12.01 15.33 11.02 15.66 10 16 C8.5 14.625 8.5 14.625 7 13 C7 12.34 7 11.68 7 11 C6.01 10.67 5.02 10.34 4 10 C3.67 10.33 3.34 10.66 3 11 C2.34 11 1.68 11 1 11 C0.34 9.02 -0.32 7.04 -1 5 C-2.32 5.33 -3.64 5.66 -5 6 C-5 4.68 -5 3.36 -5 2 C-2 0 -2 0 0 0 Z " fill="#FAB104" transform="translate(163,41)"/>
<path d="M0 0 C5.04828265 1.45128373 9.11891502 3.66818875 13.5625 6.375 C15.05128156 7.2669646 16.54090769 8.15752064 18.03125 9.046875 C19.22041016 9.7574707 19.22041016 9.7574707 20.43359375 10.48242188 C25.11287077 13.24939162 29.83889639 15.93463987 34.5625 18.625 C35.49715088 19.15786621 36.43180176 19.69073242 37.39477539 20.23974609 C39.59598251 21.49410666 41.79769743 22.74756405 44 24 C40.28272326 25.13583456 38.52948291 24.66670026 35 23 C35 22.34 35 21.68 35 21 C33.68 20.67 32.36 20.34 31 20 C31 19.34 31 18.68 31 18 C30.2575 17.896875 29.515 17.79375 28.75 17.6875 C26 17 26 17 24.125 15.4375 C21.09356588 13.38682398 18.56848996 13.79412558 15 14 C15 14.66 15 15.32 15 16 C14.34 16 13.68 16 13 16 C13 13.36 13 10.72 13 8 C12.360625 7.7525 11.72125 7.505 11.0625 7.25 C7.00011649 5.59188428 3.00275094 3.7964416 -1 2 C-0.67 1.34 -0.34 0.68 0 0 Z " fill="#FAB518" transform="translate(113,12)"/>
<path d="M0 0 C2.475 0.495 2.475 0.495 5 1 C6.25874384 4.84640605 6.09775116 8.66325689 6.03417969 12.65844727 C6.02629425 13.42474457 6.01840881 14.19104187 6.01028442 14.9805603 C5.99311347 16.64096236 5.97390937 18.30134437 5.95290375 19.96170235 C5.91088476 23.48898016 5.88738583 27.01630261 5.86287308 30.54373837 C5.81710399 37.10970961 5.76395245 43.6753897 5.67773438 50.2409668 C5.61844227 54.81023829 5.58340038 59.37913372 5.56455231 63.94874382 C5.55278819 65.69077894 5.53194047 67.4327769 5.50191498 69.17459297 C5.46102864 71.60717859 5.45103025 74.03806232 5.44824219 76.47094727 C5.42869476 77.1925856 5.40914734 77.91422394 5.38900757 78.6577301 C5.35126586 80.90156948 5.35126586 80.90156948 6 84 C8.39227262 86.03773264 8.39227262 86.03773264 11 87 C10.01 87.495 10.01 87.495 9 88 C6.41323853 87.05126953 6.41323853 87.05126953 4 85 C3.49741708 82.1961398 3.3383473 79.98654871 3.38818359 77.1796875 C3.38251877 76.38427551 3.37685394 75.58886353 3.37101746 74.76934814 C3.3575013 72.13742126 3.3784685 69.506867 3.3984375 66.875 C3.39293978 65.0480047 3.3848174 63.22101555 3.37417603 61.39404297 C3.35125748 56.5814815 3.35552396 51.76937366 3.36798096 46.95678711 C3.386268 39.25332851 3.37640402 31.55013559 3.34212112 23.84674072 C3.33600036 21.15266945 3.34929814 18.4591636 3.36410522 15.76513672 C3.36115798 14.11686048 3.35750374 12.4685853 3.35302734 10.8203125 C3.36231766 10.0690509 3.37160797 9.31778931 3.38117981 8.54376221 C3.37281779 4.48585765 3.37281779 4.48585765 1.47793579 1.01123047 C0.99021698 0.67752441 0.50249817 0.34381836 0 0 Z " fill="#EEB83A" transform="translate(190,67)"/>
<path d="M0 0 C2.39691988 1.25887468 4.56715544 2.51812265 6.8125 4 C7.7087207 4.57234375 7.7087207 4.57234375 8.62304688 5.15625 C10.0884978 6.09413859 11.5451635 7.0457295 13 8 C12.01 8.495 12.01 8.495 11 9 C8.375 8.0625 8.375 8.0625 6 7 C6 6.34 6 5.68 6 5 C4.68 5.33 3.36 5.66 2 6 C2 5.34 2 4.68 2 4 C-0.60195202 5.87938373 -0.60195202 5.87938373 -3 8 C-2.34 8.33 -1.68 8.66 -1 9 C-1 9.66 -1 10.32 -1 11 C-0.34 11 0.32 11 1 11 C0.67 11.66 0.34 12.32 0 13 C-3.96 10.69 -7.92 8.38 -12 6 C-5.5504306 -0.61929491 -5.5504306 -0.61929491 0 0 Z " fill="#F6B81A" transform="translate(18,48)"/>
<path d="M0 0 C6.875 2.75 6.875 2.75 8 5 C8.99 5.33 9.98 5.66 11 6 C11 6.66 11 7.32 11 8 C12.65 8.33 14.3 8.66 16 9 C15.67 9.99 15.34 10.98 15 12 C13.02 12 11.04 12 9 12 C8.67 12.66 8.34 13.32 8 14 C6.68 13.34 5.36 12.68 4 12 C4 11.34 4 10.68 4 10 C3.01 9.67 2.02 9.34 1 9 C1.33 7.02 1.66 5.04 2 3 C1.01 3 0.02 3 -1 3 C-0.67 2.01 -0.34 1.02 0 0 Z " fill="#FBB105" transform="translate(137,27)"/>
<path d="M0 0 C3.3125 0.9375 3.3125 0.9375 5.3125 2.9375 C5.3125 3.9275 5.3125 4.9175 5.3125 5.9375 C0.56895564 8.16406164 -3.41000715 9.39898032 -8.6875 9.9375 C-9.20798051 6.29413645 -8.81320346 5.11272301 -6.625 2.0625 C-3.6875 -0.0625 -3.6875 -0.0625 0 0 Z " fill="#FBB205" transform="translate(142.6875,193.0625)"/>
<path d="M0 0 C4.50802601 1.25805377 7.4912812 2.90407165 11 6 C9.68 6 8.36 6 7 6 C7 6.66 7 7.32 7 8 C6.01 8 5.02 8 4 8 C3.56613908 11.87797662 3.56613908 11.87797662 5.5 13.75 C6.2425 14.36875 6.2425 14.36875 7 15 C2.95698825 13.51481201 -0.61146256 11.57122002 -4.3125 9.375 C-5.38113281 8.74335937 -6.44976562 8.11171875 -7.55078125 7.4609375 C-8.76314453 6.73777344 -8.76314453 6.73777344 -10 6 C-9.34 5.67 -8.68 5.34 -8 5 C-8 4.34 -8 3.68 -8 3 C-7.01 3.33 -6.02 3.66 -5 4 C-3.8125 6.5625 -3.8125 6.5625 -3 9 C-1.35 9 0.3 9 2 9 C1.34 6.03 0.68 3.06 0 0 Z " fill="#F5BA21" transform="translate(174,47)"/>
<path d="M0 0 C1.9375 0.3125 1.9375 0.3125 4 1 C4.33 1.99 4.66 2.98 5 4 C6.65 4 8.3 4 10 4 C10 7 10 7 8 10 C4.875 10.1875 4.875 10.1875 2 10 C2 9.34 2 8.68 2 8 C1.01 8 0.02 8 -1 8 C-1.66 6.68 -2.32 5.36 -3 4 C-2.34 4 -1.68 4 -1 4 C-0.67 2.68 -0.34 1.36 0 0 Z " fill="#FBB103" transform="translate(86,193)"/>
<path d="M0 0 C4.31392226 0.4793247 6.16569547 1.7457985 9 5 C6.12242668 6.91838221 4.37225019 7.58087101 1.0625 8.3125 C-0.21947266 8.61607422 -0.21947266 8.61607422 -1.52734375 8.92578125 C-4.65647965 9.01970476 -5.73879352 8.07233541 -8 6 C-7.34 5.01 -6.68 4.02 -6 3 C-3.375 2.8125 -3.375 2.8125 -1 3 C-0.67 2.01 -0.34 1.02 0 0 Z " fill="#F8B80D" transform="translate(161,182)"/>
<path d="M0 0 C8.46000224 4.10190553 16.64314012 8.553473 24.75 13.3125 C25.84054688 13.94478516 26.93109375 14.57707031 28.0546875 15.22851562 C29.08335937 15.82986328 30.11203125 16.43121094 31.171875 17.05078125 C32.1009668 17.59387939 33.03005859 18.13697754 33.98730469 18.6965332 C34.65149414 19.12667725 35.31568359 19.55682129 36 20 C36 20.33 36 20.66 36 21 C33.125 21.125 33.125 21.125 30 21 C29.34 20.34 28.68 19.68 28 19 C24.24428676 15.96653931 20.11882418 13.50208945 16 11 C15.36191406 10.61199219 14.72382813 10.22398438 14.06640625 9.82421875 C11.10717083 8.07413329 8.42304709 6.54768753 5 6 C5 5.34 5 4.68 5 4 C3.68 4 2.36 4 1 4 C0.67 2.68 0.34 1.36 0 0 Z " fill="#F1BF35" transform="translate(135,47)"/>
<path d="M0 0 C0 0.66 0 1.32 0 2 C-1.65 2.33 -3.3 2.66 -5 3 C-5 3.66 -5 4.32 -5 5 C-5.66 5 -6.32 5 -7 5 C-7.2475 5.78375 -7.495 6.5675 -7.75 7.375 C-9 10 -9 10 -10.75 11.3125 C-13.5728478 12.17503683 -16.05877042 12.06127562 -19 12 C-21.26566343 12.43941523 -21.26566343 12.43941523 -23 13 C-18.8880247 9.4777579 -14.52158847 6.86663378 -9.8125 4.25 C-9.08869141 3.83878906 -8.36488281 3.42757812 -7.61914062 3.00390625 C-2.25502232 0 -2.25502232 0 0 0 Z " fill="#F6B926" transform="translate(72,60)"/>
<path d="M0 0 C4.39566759 0.40700626 6.67882522 1.94694814 10.375 4.3125 C10.375 4.9725 10.375 5.6325 10.375 6.3125 C11.365 6.6425 12.355 6.9725 13.375 7.3125 C12.385 7.8075 12.385 7.8075 11.375 8.3125 C8.81526658 6.82196497 6.41646372 5.14903392 3.98046875 3.46484375 C1.45455144 2.03251926 1.45455144 2.03251926 -1.0625 2.8984375 C-5.11027596 5.13211875 -9.04354816 7.5268718 -12.98046875 9.94921875 C-13.85316406 10.39910156 -14.72585937 10.84898438 -15.625 11.3125 C-16.285 10.9825 -16.945 10.6525 -17.625 10.3125 C-15.975 8.6625 -14.325 7.0125 -12.625 5.3125 C-11.965 5.6425 -11.305 5.9725 -10.625 6.3125 C-10.625 5.6525 -10.625 4.9925 -10.625 4.3125 C-9.490625 3.838125 -8.35625 3.36375 -7.1875 2.875 C-0.86813725 0.10334967 -0.86813725 0.10334967 0 0 Z " fill="#F0C133" transform="translate(113.625,59.6875)"/>
<path d="M0 0 C0.78375 0.04125 1.5675 0.0825 2.375 0.125 C-1.70798525 3.58596797 -6.0099799 6.32635367 -10.625 9 C-11.32367188 9.42796875 -12.02234375 9.8559375 -12.7421875 10.296875 C-17.91276912 13.2821542 -17.91276912 13.2821542 -21.38671875 12.515625 C-22.12535156 12.05671875 -22.86398438 11.5978125 -23.625 11.125 C-24.29144531 10.77179688 -24.95789063 10.41859375 -25.64453125 10.0546875 C-27.3046875 9.078125 -28.96484375 8.1015625 -30.625 7.125 C-28.625 6.125 -28.625 6.125 -25.25 6.875 C-22.06489717 7.97331132 -20.11680933 8.93220779 -17.625 11.125 C-17.295 10.135 -16.965 9.145 -16.625 8.125 C-15.305 8.125 -13.985 8.125 -12.625 8.125 C-12.625 7.465 -12.625 6.805 -12.625 6.125 C-12.07070313 5.85945313 -11.51640625 5.59390625 -10.9453125 5.3203125 C-10.22085938 4.96710937 -9.49640625 4.61390625 -8.75 4.25 C-8.03070313 3.90195312 -7.31140625 3.55390625 -6.5703125 3.1953125 C-0.83504566 0.03976408 -0.83504566 0.03976408 0 0 Z " fill="#F3BE37" transform="translate(53.625,56.875)"/>
<path d="M0 0 C0 1.65 0 3.3 0 5 C-0.99 5 -1.98 5 -3 5 C-3 5.99 -3 6.98 -3 8 C-4.43503555 8.36402369 -5.87316506 8.71586591 -7.3125 9.0625 C-8.11300781 9.25972656 -8.91351563 9.45695312 -9.73828125 9.66015625 C-12 10 -12 10 -15 9 C-14.67 8.01 -14.34 7.02 -14 6 C-12.01463373 5.29094062 -10.01089078 4.63305821 -8 4 C-0.41698842 0 -0.41698842 0 0 0 Z " fill="#F8B415" transform="translate(47,51)"/>
<path d="M0 0 C1.8125 1.5625 1.8125 1.5625 3 3 C2.21625 2.79375 1.4325 2.5875 0.625 2.375 C-0.24125 2.25125 -1.1075 2.1275 -2 2 C-2.66 2.66 -3.32 3.32 -4 4 C-6.625 3.625 -6.625 3.625 -9 3 C-9.33 3.66 -9.66 4.32 -10 5 C-10.98020375 6.0194119 -11.97803008 7.02246356 -13 8 C-14.32 7.34 -15.64 6.68 -17 6 C-15.11542462 4.79471335 -13.21682415 3.61133551 -11.3125 2.4375 C-10.25675781 1.77621094 -9.20101562 1.11492187 -8.11328125 0.43359375 C-4.70920302 -1.13390526 -3.46330673 -1.26825317 0 0 Z " fill="#F7BD30" transform="translate(198,162)"/>
<path d="M0 0 C5.07634826 1.7989503 9.63713611 4.49026455 14.3125 7.125 C15.14845703 7.59292969 15.98441406 8.06085937 16.84570312 8.54296875 C18.89866233 9.6926259 20.95002202 10.84503802 23 12 C19.28272326 13.13583456 17.52948291 12.66670026 14 11 C14 10.34 14 9.68 14 9 C12.68 8.67 11.36 8.34 10 8 C10 7.34 10 6.68 10 6 C9.278125 5.938125 8.55625 5.87625 7.8125 5.8125 C4.15342375 4.75543353 2.50788398 2.79449929 0 0 Z " fill="#EFBB3E" transform="translate(134,24)"/>
<path d="M0 0 C-11.53846154 10 -11.53846154 10 -17 10 C-16.1875 7.5625 -16.1875 7.5625 -15 5 C-12 4 -12 4 -8 4 C-7.67 3.01 -7.34 2.02 -7 1 C-4.53721199 -0.231394 -2.7204945 -0.07159196 0 0 Z " fill="#F8BB2B" transform="translate(165,189)"/>
<path d="M0 0 C0.22429687 0.61359375 0.44859375 1.2271875 0.6796875 1.859375 C2.42512806 4.68926087 4.0309923 5.13933057 7.125 6.25 C8.49011719 6.75273437 8.49011719 6.75273437 9.8828125 7.265625 C10.58148438 7.50796875 11.28015625 7.7503125 12 8 C12 8.99 12 9.98 12 11 C7.46152802 9.65072455 3.68067754 7.80840652 -0.375 5.375 C-1.43460937 4.74335938 -2.49421875 4.11171875 -3.5859375 3.4609375 C-4.38257813 2.97882813 -5.17921875 2.49671875 -6 2 C-2.25 0 -2.25 0 0 0 Z " fill="#F3BA2C" transform="translate(67,164)"/>
<path d="M0 0 C15.74487472 8.261959 15.74487472 8.261959 23 13 C19.2578125 14.09375 19.2578125 14.09375 16.9375 13.25 C15 12 15 12 13.6875 10.5625 C11.13289135 8.19712162 8.22657091 7.27845262 5 6 C5 5.34 5 4.68 5 4 C2.525 3.01 2.525 3.01 0 2 C0 1.34 0 0.68 0 0 Z " fill="#F0BD35" transform="translate(75,147)"/>
<path d="M0 0 C0.66 0.33 1.32 0.66 2 1 C0.36058714 4.4609827 -0.41711585 5.7739837 -4.0625 7.1875 C-5.031875 7.455625 -6.00125 7.72375 -7 8 C-7.66 8.66 -8.32 9.32 -9 10 C-11.625 9.625 -11.625 9.625 -14 9 C-9.80022081 5.3421278 -5.12798061 2.20634136 0 0 Z " fill="#F8BC29" transform="translate(179,169)"/>
<path d="M0 0 C4.73474097 1.6996506 8.96167111 4.13659027 13.3125 6.625 C14.05306641 7.04523438 14.79363281 7.46546875 15.55664062 7.8984375 C17.37269011 8.92948495 19.18656533 9.96436046 21 11 C20.01 11.33 19.02 11.66 18 12 C15.6953125 10.8203125 15.6953125 10.8203125 13.125 9.125 C10.42497714 7.34975561 8.47536242 6.09397497 5.29296875 5.46484375 C3 5 3 5 1.1875 2.4375 C0.795625 1.633125 0.40375 0.82875 0 0 Z " fill="#EFC23C" transform="translate(88,192)"/>
<path d="M0 0 C1.8125 1.5 1.8125 1.5 3 3 C1.906875 2.979375 0.81375 2.95875 -0.3125 2.9375 C-3.94384191 2.81455548 -3.94384191 2.81455548 -7 4 C-7.33 4.99 -7.66 5.98 -8 7 C-7.01 7.33 -6.02 7.66 -5 8 C-5.99 8.495 -5.99 8.495 -7 9 C-9.625 7.5625 -9.625 7.5625 -12 6 C-5.61964592 -0.54825814 -5.61964592 -0.54825814 0 0 Z " fill="#F1C439" transform="translate(18,48)"/>
<path d="M0 0 C1.875 1.5 1.875 1.5 3 3 C1.824375 2.9175 0.64875 2.835 -0.5625 2.75 C-3.94199396 2.72009297 -5.89657249 3.26131257 -8.75 5.0625 C-12 7 -12 7 -14.203125 6.62109375 C-14.79609375 6.41613281 -15.3890625 6.21117187 -16 6 C-5.23404255 -1.14893617 -5.23404255 -1.14893617 0 0 Z " fill="#F1C231" transform="translate(117,36)"/>
<path d="M0 0 C0.928125 0.20625 1.85625 0.4125 2.8125 0.625 C0.44452009 3.24224095 -2.08350354 4.95361729 -5.1875 6.625 C-5.8475 6.625 -6.5075 6.625 -7.1875 6.625 C-6.875 4.25 -6.875 4.25 -6.1875 1.625 C-3.1875 -0.375 -3.1875 -0.375 0 0 Z " fill="#F7B921" transform="translate(153.1875,170.375)"/>
<path d="M0 0 C0.99 0.33 1.98 0.66 3 1 C3 3 3 5 3 7 C3.99 7 4.98 7 6 7 C6 7.66 6 8.32 6 9 C1.38486888 7.68139111 -2.09897612 5.78644563 -6 3 C-3.99967627 1.99983813 -2.16874252 1.50603992 0 1 C0 0.67 0 0.34 0 0 Z " fill="#F3B629" transform="translate(82,194)"/>
<path d="M0 0 C2.31 0 4.62 0 7 0 C6.67 0.99 6.34 1.98 6 3 C7.98 2.67 9.96 2.34 12 2 C12.66 3.98 13.32 5.96 14 8 C9.02790438 6.23570801 4.56561939 3.6060834 0 1 C0 0.67 0 0.34 0 0 Z " fill="#F4BA32" transform="translate(82,177)"/>
<path d="M0 0 C0.33 0.66 0.66 1.32 1 2 C4.02934491 2.65772428 4.02934491 2.65772428 7 3 C7.66 4.98 8.32 6.96 9 9 C5.57308643 7.76250343 2.64697231 6.5489363 0 4 C0 2.68 0 1.36 0 0 Z " fill="#F1BA20" transform="translate(45,152)"/>
<path d="M0 0 C5.31027254 1.46032495 9.46330032 3.98320986 14 7 C10.31020833 8.22993056 9.43667559 7.59260576 6 6 C5.278125 5.71125 4.55625 5.4225 3.8125 5.125 C1.57979713 3.73918442 0.96213823 2.40534558 0 0 Z " fill="#F4BD30" transform="translate(120,39)"/>
<path d="M0 0 C0.66 0.33 1.32 0.66 2 1 C1.38125 1.5775 0.7625 2.155 0.125 2.75 C-1.81347053 4.80249821 -2.90014249 6.43366582 -4 9 C-5.98 8.34 -7.96 7.68 -10 7 C-6.81404865 4.36021174 -3.69029454 1.89501612 0 0 Z " fill="#F6BD2F" transform="translate(137,193)"/>
<path d="M0 0 C2.31 0.33 4.62 0.66 7 1 C6.1875 2.9375 6.1875 2.9375 5 5 C4.01 5.33 3.02 5.66 2 6 C-0.1875 4.5625 -0.1875 4.5625 -2 3 C-1.34 2.01 -0.68 1.02 0 0 Z " fill="#F7B202" transform="translate(155,185)"/>
<path d="M0 0 C1.32 1.32 2.64 2.64 4 4 C3.01 4.99 2.02 5.98 1 7 C-0.32 6.34 -1.64 5.68 -3 5 C-3 3.68 -3 2.36 -3 1 C-2.01 0.67 -1.02 0.34 0 0 Z " fill="#FAB203" transform="translate(51,174)"/>
<path d="M0 0 C3.77545388 1.09068668 6.47043472 1.9083091 9 5 C6.36 5.33 3.72 5.66 1 6 C-0.0625 4.125 -0.0625 4.125 -1 2 C-0.67 1.34 -0.34 0.68 0 0 Z " fill="#F5B91E" transform="translate(98,161)"/>
<path d="M0 0 C1.32 0 2.64 0 4 0 C4 0.66 4 1.32 4 2 C8.455 2.99 8.455 2.99 13 4 C13.33 5.32 13.66 6.64 14 8 C9.02790438 6.23570801 4.56561939 3.6060834 0 1 C0 0.67 0 0.34 0 0 Z " fill="#F0BC32" transform="translate(136,73)"/>
<path d="M0 0 C5.96652354 1.57013777 10.82909025 4.75029782 16 8 C13 9 13 9 9.64453125 7.56640625 C8.3619696 6.90851193 7.08475943 6.24010257 5.8125 5.5625 C5.15830078 5.22412109 4.50410156 4.88574219 3.83007812 4.53710938 C2.21540701 3.70030902 0.60707237 2.85130254 -1 2 C-0.67 1.34 -0.34 0.68 0 0 Z " fill="#EDC13E" transform="translate(113,12)"/>
<path d="M0 0 C0.66 0.33 1.32 0.66 2 1 C0.07423885 3.43929746 -1.80090595 5.80090595 -4 8 C-7.125 7.625 -7.125 7.625 -10 7 C-6.81404865 4.36021174 -3.69029454 1.89501612 0 0 Z " fill="#F6C02F" transform="translate(163,178)"/>
<path d="M0 0 C1.32 0 2.64 0 4 0 C4 0.66 4 1.32 4 2 C4.66 1.34 5.32 0.68 6 0 C6.99 0 7.98 0 9 0 C9.66 1.98 10.32 3.96 11 6 C6.49197399 4.74194623 3.5087188 3.09592835 0 0 Z " fill="#F3B926" transform="translate(153,46)"/>
<path d="M0 0 C1.98270912 0.95098266 3.96108379 1.91100703 5.9375 2.875 C7.03964844 3.40867188 8.14179688 3.94234375 9.27734375 4.4921875 C12 6 12 6 13 8 C11.35 8 9.7 8 8 8 C7.67 7.01 7.34 6.02 7 5 C5.35 4.67 3.7 4.34 2 4 C2 3.34 2 2.68 2 2 C1.34 2 0.68 2 0 2 C0 1.34 0 0.68 0 0 Z " fill="#F1B938" transform="translate(161,39)"/>
<path d="M0 0 C2.97 0.495 2.97 0.495 6 1 C3.12050853 3.23960447 0.23257974 5.29864224 -3 7 C-3.66 6.67 -4.32 6.34 -5 6 C-4.67 5.34 -4.34 4.68 -4 4 C-3.34 4 -2.68 4 -2 4 C-2 3.34 -2 2.68 -2 2 C-1.34 2 -0.68 2 0 2 C0 1.34 0 0.68 0 0 Z " fill="#F2BA2D" transform="translate(125,208)"/>
<path d="M0 0 C4.30764815 1.56641751 8.06171464 3.68336156 12 6 C7.96034936 7.34655021 5.90770987 6.56308395 2 5 C0.5625 2.375 0.5625 2.375 0 0 Z " fill="#EFBE31" transform="translate(76,185)"/>
<path d="M0 0 C-1.62170379 1.00533667 -3.24747237 2.00411907 -4.875 3 C-6.23238281 3.8353125 -6.23238281 3.8353125 -7.6171875 4.6875 C-10 6 -10 6 -12 6 C-12 5.01 -12 4.02 -12 3 C-10.5682384 2.30062798 -9.12932968 1.61587282 -7.6875 0.9375 C-6.48673828 0.36322266 -6.48673828 0.36322266 -5.26171875 -0.22265625 C-3 -1 -3 -1 0 0 Z " fill="#F1C130" transform="translate(144,179)"/>
<path d="M0 0 C0.66 0.33 1.32 0.66 2 1 C-2.105466 4.97185616 -5.02968261 7.70876501 -11 8 C-7.71644638 4.32241995 -4.37221763 2.18610882 0 0 Z " fill="#F3C237" transform="translate(90,48)"/>
<path d="M0 0 C0.99 0.33 1.98 0.66 3 1 C1.3811004 2.03048037 -0.24532489 3.04914678 -1.875 4.0625 C-2.77992187 4.63097656 -3.68484375 5.19945312 -4.6171875 5.78515625 C-5.40351562 6.18605469 -6.18984375 6.58695313 -7 7 C-7.66 6.67 -8.32 6.34 -9 6 C-8.67 5.01 -8.34 4.02 -8 3 C-5.0625 1.875 -5.0625 1.875 -2 1 C-1.34 0.67 -0.68 0.34 0 0 Z " fill="#F3BD33" transform="translate(89,36)"/>
<path d="M0 0 C0 0.66 0 1.32 0 2 C-1.72526042 2.9765625 -3.45052083 3.953125 -5.17578125 4.9296875 C-6.81982289 5.89428581 -8.41400588 6.94267059 -10 8 C-10.66 7.34 -11.32 6.68 -12 6 C-10.37829621 4.99466333 -8.75252763 3.99588093 -7.125 3 C-5.76761719 2.1646875 -5.76761719 2.1646875 -4.3828125 1.3125 C-2 0 -2 0 0 0 Z " fill="#F0B837" transform="translate(89,27)"/>
<path d="M0 0 C0.721875 0.144375 1.44375 0.28875 2.1875 0.4375 C4.96513657 1.0439459 4.96513657 1.0439459 7.6875 1.25 C10 2 10 2 11.3125 4.5625 C11.6528125 5.7690625 11.6528125 5.7690625 12 7 C7.69235185 5.43358249 3.93828536 3.31663844 0 1 C0 0.67 0 0.34 0 0 Z " fill="#F1BC3A" transform="translate(30,170)"/>
<path d="M0 0 C0 0.66 0 1.32 0 2 C-0.99 2.495 -0.99 2.495 -2 3 C-2 3.99 -2 4.98 -2 6 C-4.31 5.67 -6.62 5.34 -9 5 C-2.87096774 0 -2.87096774 0 0 0 Z " fill="#F3BF36" transform="translate(148,188)"/>
<path d="M0 0 C1.32 0 2.64 0 4 0 C4 0.66 4 1.32 4 2 C4.78375 2.0825 5.5675 2.165 6.375 2.25 C7.24125 2.4975 8.1075 2.745 9 3 C9.66 4.32 10.32 5.64 11 7 C7.37 5.02 3.74 3.04 0 1 C0 0.67 0 0.34 0 0 Z " fill="#F3C234" transform="translate(196,173)"/>
<path d="M0 0 C-0.33 1.32 -0.66 2.64 -1 4 C-3.64 3.34 -6.28 2.68 -9 2 C-5.86501708 0.14223235 -3.62528568 -0.20140476 0 0 Z " fill="#F8B61C" transform="translate(28,60)"/>
<path d="M0 0 C0 0.99 0 1.98 0 3 C-2.25 4.75 -2.25 4.75 -5 6 C-6.32 5.67 -7.64 5.34 -9 5 C-6.03 3.35 -3.06 1.7 0 0 Z " fill="#EFBA3C" transform="translate(56,45)"/>
<path d="M0 0 C0 0.99 0 1.98 0 3 C-5.078125 6.22265625 -5.078125 6.22265625 -7 7 C-8.32 6.67 -9.64 6.34 -11 6 C-7.37 4.02 -3.74 2.04 0 0 Z " fill="#F2BC3A" transform="translate(75,34)"/>
<path d="M0 0 C5.28798182 0.41474367 8.11690718 1.35224614 12 5 C8.97580475 4.41196203 5.98241547 3.77321882 3 3 C3 2.34 3 1.68 3 1 C2.01 0.67 1.02 0.34 0 0 Z " fill="#F1B92F" transform="translate(145,32)"/>
<path d="M0 0 C-2.88087546 2.40072955 -5.56404834 4.47291037 -9 6 C-7.01260984 0.46369883 -5.82303895 -0.15323787 0 0 Z " fill="#F6C537" transform="translate(165,189)"/>
<path d="M0 0 C3.1875 -0.3125 3.1875 -0.3125 6 0 C0.85714286 4.42857143 0.85714286 4.42857143 -3 5 C-1.875 2.5 -1.875 2.5 0 0 Z " fill="#EEC233" transform="translate(123,187)"/>
<path d="M0 0 C2.64 0.33 5.28 0.66 8 1 C3.25 5 3.25 5 1 5 C0.67 3.35 0.34 1.7 0 0 Z " fill="#F6BB2A" transform="translate(81,74)"/>
<path d="M0 0 C2.97 0.33 5.94 0.66 9 1 C9.33 2.65 9.66 4.3 10 6 C6.40992874 4.66654496 3.20429093 3.1056769 0 1 C0 0.67 0 0.34 0 0 Z " fill="#F3BB33" transform="translate(120,27)"/>
<path d="M0 0 C0.66 0.33 1.32 0.66 2 1 C1.01 1.33 0.02 1.66 -1 2 C-1.73323796 4.01508358 -1.73323796 4.01508358 -2 6 C-3.98 6 -5.96 6 -8 6 C-5.63404067 3.38499232 -3.13950774 1.61000397 0 0 Z " fill="#F3BA36" transform="translate(109,14)"/>
<path d="M0 0 C-4.95 2.475 -4.95 2.475 -10 5 C-9 2 -9 2 -6.6875 0.25 C-4 -1 -4 -1 0 0 Z " fill="#F3C330" transform="translate(148,200)"/>
<path d="M0 0 C2.31 0 4.62 0 7 0 C1.85714286 4.42857143 1.85714286 4.42857143 -2 5 C-1.34 3.35 -0.68 1.7 0 0 Z " fill="#F4C42F" transform="translate(162,164)"/>
<path d="M0 0 C3.375 0.25 3.375 0.25 7 1 C8.4375 3.0625 8.4375 3.0625 9 5 C5.22454612 3.90931332 2.52956528 3.0916909 0 0 Z " fill="#F1C02E" transform="translate(127,68)"/>
<path d="M0 0 C0 1.65 0 3.3 0 5 C-2.64 5 -5.28 5 -8 5 C-5.93424534 2.72766987 -3.29882018 0 0 0 Z " fill="#F1B72C" transform="translate(47,51)"/>
<path d="M0 0 C3 1 3 1 4.1875 3.0625 C4.455625 3.701875 4.72375 4.34125 5 5 C2.0625 4.625 2.0625 4.625 -1 4 C-1.33 3.34 -1.66 2.68 -2 2 C-1.34 2 -0.68 2 0 2 C0 1.34 0 0.68 0 0 Z " fill="#F5B51E" transform="translate(166,50)"/>
<path d="M0 0 C0.66 0.33 1.32 0.66 2 1 C-2.296875 5.00390625 -2.296875 5.00390625 -4 6 C-6.203125 5.65234375 -6.203125 5.65234375 -8 5 C-6.71475739 4.13619741 -5.42157581 3.28419631 -4.125 2.4375 C-3.04605469 1.72400391 -3.04605469 1.72400391 -1.9453125 0.99609375 C-1.30335937 0.66738281 -0.66140625 0.33867188 0 0 Z " fill="#EDC041" transform="translate(109,37)"/>
<path d="M0 0 C1.98 0 3.96 0 6 0 C6 0.66 6 1.32 6 2 C6.66 2 7.32 2 8 2 C8.33 2.99 8.66 3.98 9 5 C5.54074837 3.7508258 2.85306797 2.32472205 0 0 Z " fill="#EFBA2C" transform="translate(96,185)"/>
<path d="M0 0 C3.1875 -0.3125 3.1875 -0.3125 6 0 C0.85714286 4.42857143 0.85714286 4.42857143 -3 5 C-1.875 2.5 -1.875 2.5 0 0 Z " fill="#F0C12F" transform="translate(71,82)"/>
<path d="M0 0 C2.91517292 1.07401108 4.77810176 1.77810176 7 4 C4.69 4.33 2.38 4.66 0 5 C0 3.35 0 1.7 0 0 Z " fill="#F5BB25" transform="translate(185,53)"/>
</svg>
