<?xml version="1.0" encoding="UTF-8"?>
<svg version="1.1" xmlns="http://www.w3.org/2000/svg" width="989" height="252">
<path d="M0 0 C0.66 0.66 1.32 1.32 2 2 C2.33 -0.64 2.66 -3.28 3 -6 C15.21 -6 27.42 -6 40 -6 C40.09056805 9.16074365 40.16413699 24.3213639 40.20724869 39.4823103 C40.22780528 46.52305529 40.25579222 53.56361929 40.30175781 60.60424805 C40.34614168 67.40588901 40.36917517 74.20734229 40.37950897 81.00911903 C40.38686815 83.59690614 40.40123848 86.18468363 40.42292023 88.77239037 C40.56824854 106.84509462 40.59641652 123.13279552 27.8828125 137.37109375 C13.90176762 150.96250296 -4.50698926 155.23805382 -23.44335938 155.25146484 C-39.92049767 154.96776756 -56.73118831 151.75313484 -69 140 C-69.42164116 139.36524246 -69.84328232 138.73048492 -70.27770048 138.07649231 C-72.72913842 134.62141417 -74.63288412 132.3618677 -78.8166827 131.25444031 C-82.36823153 130.97327768 -85.84532264 130.94544087 -89.40782166 131 C-90.77919512 130.99237486 -92.15055278 130.98124077 -93.52187258 130.96691227 C-97.28055391 130.93774952 -101.03756473 130.95822652 -104.79618895 130.98693204 C-108.85276753 131.00917524 -112.90910621 130.98521511 -116.96566772 130.96690369 C-123.99060019 130.94149917 -131.01502898 130.94528258 -138.03996086 130.96896362 C-148.19669099 131.00315965 -158.35300198 130.99322314 -168.50975115 130.97256029 C-184.98874636 130.94023195 -201.46753385 130.94353039 -217.9465332 130.96923828 C-233.95308411 130.99413283 -249.95949862 131.00224553 -265.96606445 130.98779297 C-267.44634916 130.98646516 -267.44634916 130.98646516 -268.95653861 130.98511052 C-273.90737204 130.98056612 -278.85820509 130.97569184 -283.80903804 130.97065353 C-324.87275899 130.92929104 -365.93630117 130.94634297 -407 131 C-407 124.07 -407 117.14 -407 110 C-362.2440069 109.87178029 -317.48801175 109.74430012 -272.73201371 109.61781773 C-267.41883595 109.60280182 -262.1056582 109.58777977 -256.79248047 109.57275391 C-255.7349559 109.56976329 -254.67743134 109.56677268 -253.58786057 109.56369144 C-236.58234049 109.51558629 -219.57682186 109.46698593 -202.57130374 109.41819459 C-185.05361154 109.36794507 -167.53591783 109.31824618 -150.01822269 109.26903296 C-140.2076951 109.24145669 -130.39716832 109.21364307 -120.58664322 109.18519592 C-80.05768521 109.06779597 -39.52917568 108.95696975 1 109 C1.90575383 105.65278514 2.10389209 102.72693522 2.0625 99.25 C2.04896484 97.77273437 2.04896484 97.77273437 2.03515625 96.265625 C2.02355469 95.51796875 2.01195312 94.7703125 2 94 C0.7934375 94.8971875 0.7934375 94.8971875 -0.4375 95.8125 C-12.15915873 103.62693915 -29.46412422 103.7651923 -42.8828125 101.28125 C-46.02971586 100.35875351 -48.98911895 99.29587636 -52 98 C-53.2065625 97.49146484 -53.2065625 97.49146484 -54.4375 96.97265625 C-65.73970296 91.45890793 -74.46684164 80.5141492 -79.25 69.0625 C-84.45203555 53.43453607 -84.46042489 35.90074887 -77.5390625 20.84375 C-70.08202593 7.06526618 -59.54354512 -2.9169681 -44.50390625 -7.8125 C-28.77726155 -11.5311155 -13.47430374 -8.66895169 0 0 Z M-38.5234375 31.13671875 C-43.99285564 38.03860354 -43.86858223 45.4622315 -43 54 C-41.37181709 60.13476059 -37.35393248 64.67759921 -32 68 C-25.00300011 70.83557534 -16.14607617 71.62413613 -9 68.75 C-2.67648197 65.06128115 1.34733891 61.26242085 3.59375 54.109375 C4.93845003 47.12727868 4.96122071 39.11622444 1 33 C-4.07868948 27.39352515 -8.83101454 23.42277196 -16.53125 22.79296875 C-25.80573314 22.44899753 -32.19195759 24.15474433 -38.5234375 31.13671875 Z " fill="#FEFEFE" transform="translate(416,90)"/>
<path d="M0 0 C80.43032561 0 80.43032561 0 95.31640625 14.01953125 C103.73110124 23.91802396 104.85032967 36.46490089 104.19091797 48.88427734 C103.33735243 58.34335535 99.70316441 66.31074257 93 73 C90.73439317 74.87331304 88.49195991 76.42345393 86 78 C86.845625 78.29132813 87.69125 78.58265625 88.5625 78.8828125 C99.10789522 82.69353486 107.60749661 87.5248173 114 97 C119.84478734 109.61057147 120.96816885 123.76247616 117.09765625 137.15625 C112.71823271 148.50222984 104.89996676 156.56823612 94.3125 162.3125 C64.83426986 174.86263758 28.70807621 168 -1 168 C-0.67 112.56 -0.34 57.12 0 0 Z M39 30 C39 41.55 39 53.1 39 65 C52.65337067 65.2223689 52.65337067 65.2223689 63.5625 58.5 C66.51355092 53.36773752 66.65179466 47.80189047 66 42 C63.78624461 37.40220035 60.82377454 33.85461202 56 32 C50.38863838 30.8635217 44.73304441 30 39 30 Z M39 99 C39 111.87 39 124.74 39 138 C57.67858382 138.86058153 57.67858382 138.86058153 74 131 C77.47772811 126.27028977 78.73581666 121.88653327 78 116 C76.61917041 110.4554381 74.60257014 106.57977678 70 103 C60.0167594 98.07025929 50.23989846 99 39 99 Z " fill="#FEFEFE" transform="translate(12,21)"/>
<path d="M0 0 C11.88 0 23.76 0 36 0 C37.16660365 3.49981095 37.17536376 6.67415346 37.20532227 10.31713867 C37.21522186 11.05884811 37.22512146 11.80055756 37.23532104 12.56474304 C37.26690257 15.01578583 37.29168021 17.466848 37.31640625 19.91796875 C37.33697867 21.61762495 37.35797522 23.31727607 37.37937927 25.016922 C37.4345702 29.49014163 37.48399262 33.96340721 37.53222656 38.43670654 C37.58246332 43.00146574 37.63813804 47.56615823 37.69335938 52.13085938 C37.80090452 61.08718259 37.9023576 70.04356373 38 79 C38.47150482 78.58595413 38.94300964 78.17190826 39.42880249 77.74531555 C40.05219513 77.20327988 40.67558777 76.6612442 41.31787109 76.1027832 C41.93375092 75.56498734 42.54963074 75.02719147 43.18417358 74.47309875 C45.50805227 72.58783992 47.88210185 71.36923854 50.625 70.1875 C51.52476562 69.78917969 52.42453125 69.39085938 53.3515625 68.98046875 C66.01728628 64.29153561 80.09499938 67.34722062 92.21875 72.3203125 C101.08314198 76.77686122 107.6771468 83.56649236 111 93 C113.15409774 102.73031485 113.26771075 112.45346937 113.1953125 122.36328125 C113.19157135 123.8916963 113.18872961 125.42011378 113.18673706 126.9485321 C113.17918716 130.92523092 113.15961563 134.90177809 113.1373291 138.87841797 C113.11303644 143.67441424 113.10404843 148.47046189 113.09242249 153.26650238 C113.07318403 160.51110629 113.03480202 167.75537903 113 175 C100.46 175 87.92 175 75 175 C74.96261719 170.37742188 74.92523437 165.75484375 74.88671875 160.9921875 C74.85642946 158.05725494 74.8252755 155.12238234 74.79101562 152.1875 C74.73676308 147.5329089 74.6856505 142.87843638 74.65356445 138.22363281 C74.62748417 134.46923713 74.58704914 130.71524134 74.53681374 126.9610939 C74.52017679 125.53148512 74.50864277 124.10180722 74.50238609 122.67211533 C74.49271133 120.66394765 74.46292573 118.65590777 74.43237305 116.64794922 C74.42126999 115.50655487 74.41016693 114.36516052 74.39872742 113.18917847 C73.64318618 107.14606295 70.75158896 102.71863484 66 99 C60.10736013 96.62266345 54.85714474 96.58532088 49 99 C43.75350306 101.92593098 39.93149007 105.20552978 38 111 C37.88265016 113.06966464 37.82318373 115.14278334 37.79467773 117.21557617 C37.77473251 118.4966777 37.75478729 119.77777924 37.73423767 121.09770203 C37.7172546 122.49612304 37.70037575 123.89454531 37.68359375 125.29296875 C37.66301834 126.7235829 37.64202171 128.15419105 37.62062073 129.58479309 C37.56546067 133.34780006 37.51602471 137.11086135 37.46777344 140.8739624 C37.40867552 145.39030643 37.34248096 149.90655133 37.27747345 154.42281342 C37.17954024 161.281815 37.09063217 168.14088055 37 175 C24.46 175 11.92 175 -1 175 C-0.67 117.25 -0.34 59.5 0 0 Z " fill="#FEB202" transform="translate(480,14)"/>
<path d="M0 0 C9.76558482 8.40492279 16.72744981 19.43612529 18.69140625 32.31640625 C19.90524923 48.68642754 17.06471037 63.31249138 6.62890625 76.44140625 C-4.77768956 88.65022419 -21.23652683 95.9852687 -37.875 96.65234375 C-58.81024133 96.96983353 -77.26925589 94.00311739 -93.0234375 78.8125 C-103.97405405 66.85105731 -108.32110515 53.15324867 -107.625 37.10546875 C-106.40055164 22.44232177 -100.20954583 10.22490748 -89.30859375 0.31640625 C-63.59931203 -19.80808768 -25.76570926 -20.39085465 0 0 Z M-62.30859375 24.31640625 C-66.98458153 31.49596823 -69.59075992 37.77618247 -67.8828125 46.48828125 C-65.7912461 53.93066475 -61.67884344 59.34512813 -54.99609375 63.25390625 C-46.95277846 65.57147167 -39.92182095 66.31471982 -32.30859375 62.31640625 C-25.33928271 57.58897149 -22.26273266 52.79351958 -20.49609375 44.50390625 C-19.80109312 36.69270347 -21.5907534 30.06278394 -26.59375 24.0078125 C-31.52914784 19.13986884 -37.23069865 17.19687558 -44.05859375 17.06640625 C-51.15833306 17.15005561 -57.27654617 19.14835738 -62.30859375 24.31640625 Z " fill="#FDB203" transform="translate(713.30859375,95.68359375)"/>
<path d="M0 0 C10.48888767 8.96122685 18.58509775 20.47168924 19.80493164 34.57373047 C19.90466195 37.08573439 19.93079154 39.58376012 19.9140625 42.09765625 C19.90842285 42.98316162 19.9027832 43.86866699 19.89697266 44.78100586 C19.7806289 51.02958715 19.27295595 56.49680162 16.6015625 62.22265625 C15.98087891 63.5684375 15.98087891 63.5684375 15.34765625 64.94140625 C7.53193666 80.445068 -5.02179627 89.53800974 -21.17578125 95.1953125 C-40.20034816 100.57019014 -62.28315656 98.33155741 -79.6484375 88.98828125 C-84.4192417 85.9252081 -88.42495304 82.24598729 -92.3984375 78.22265625 C-93.26082031 77.39314453 -93.26082031 77.39314453 -94.140625 76.546875 C-103.17593583 67.11363597 -106.33357386 54.15530636 -106.42578125 41.45703125 C-105.81449631 25.97114604 -100.17181828 13.01732554 -88.87109375 2.3203125 C-64.10122966 -18.69298452 -25.80084481 -19.88970025 0 0 Z M-62.3984375 27.22265625 C-67.33619166 33.87648235 -67.30662103 41.20817065 -66.3984375 49.22265625 C-64.75762756 55.35870288 -60.75882229 59.89625146 -55.3984375 63.22265625 C-48.40143761 66.05823159 -39.54451367 66.84679238 -32.3984375 63.97265625 C-26.08109382 60.2875391 -22.03659558 56.48428982 -19.80859375 49.328125 C-18.45568396 42.38318807 -18.78453699 35.64798457 -22 29.296875 C-25.13505567 24.64683432 -29.20801597 21.36764932 -34.1484375 18.78515625 C-45.53995737 16.81354704 -54.79168896 17.92551914 -62.3984375 27.22265625 Z " fill="#FEFEFE" transform="translate(305.3984375,94.77734375)"/>
<path d="M0 0 C1.24608032 0.00737183 1.24608032 0.00737183 2.51733398 0.01489258 C8.92570528 0.13681983 14.63846322 0.9062421 20.625 3.3125 C21.47191406 3.6528125 22.31882812 3.993125 23.19140625 4.34375 C36.51384002 10.36426969 44.18452162 20.79074281 49.5 34.125 C51.02283622 38.18421576 52.02158501 42.01798268 52.625 46.3125 C46.89933349 48.96504084 41.13296691 50.66704103 35.0390625 52.2734375 C34.02387543 52.54588287 33.00868835 52.81832825 31.96273804 53.09902954 C28.72645034 53.96677098 25.48836419 54.82754353 22.25 55.6875 C18.01225953 56.81747842 13.775363 57.95057298 9.5390625 59.0859375 C8.51806458 59.35927917 7.49706665 59.63262085 6.44512939 59.91424561 C-2.20392551 62.24127605 -10.80050051 64.72532858 -19.375 67.3125 C-18.385 68.983125 -18.385 68.983125 -17.375 70.6875 C-15.375 74.0625 -15.375 74.0625 -15.375 76.3125 C-6.08070701 80.37875318 2.08778035 81.86308124 11.6875 78.3125 C19.51807393 74.83224492 23.39763956 69.53789945 27.625 62.3125 C37.44095659 63.83510713 47.11471645 65.35886568 56.625 68.3125 C54.58908058 80.93520039 47.34203854 91.22082522 37.1875 98.875 C22.56990181 108.53897944 3.67444367 115.0724906 -13.89453125 111.62109375 C-30.07725668 107.7024804 -42.77121289 100.34390613 -52.83984375 86.84765625 C-60.82387416 73.66283249 -62.26878626 58.46986723 -59.7265625 43.4921875 C-55.48483385 28.44673971 -44.98525893 14.99942089 -31.375 7.3125 C-21.15220828 2.62394467 -11.24231543 -0.07935752 0 0 Z M-21.3125 32 C-23.73381271 35.88877496 -25.21785651 39.69063266 -25.375 44.3125 C-24.715 44.9725 -24.055 45.6325 -23.375 46.3125 C-5.555 41.3625 -5.555 41.3625 12.625 36.3125 C7.60575141 28.73088432 7.60575141 28.73088432 0.625 25.3125 C-7.99382027 24.14859094 -14.89194557 26.12587573 -21.3125 32 Z " fill="#FDB203" transform="translate(902.375,79.6875)"/>
<path d="M0 0 C117.15 0 234.3 0 355 0 C351.95779081 2.28165689 349.62899573 3.77414164 346.26953125 5.33984375 C345.38458984 5.76330078 344.49964844 6.18675781 343.58789062 6.62304688 C341.7295535 7.50317417 339.86751101 8.37551783 338.00195312 9.24023438 C337.12087891 9.66498047 336.23980469 10.08972656 335.33203125 10.52734375 C334.52483643 10.90624756 333.7176416 11.28515137 332.88598633 11.67553711 C330.87041614 12.84722665 330.87041614 12.84722665 330.16674805 14.90454102 C329.86051734 17.34513212 329.86051734 17.34513212 331 21 C221.77 21 112.54 21 0 21 C0 14.07 0 7.14 0 0 Z " fill="#FDB203" transform="translate(9,200)"/>
<path d="M0 0 C12.21 0 24.42 0 37 0 C37 57.75 37 115.5 37 175 C24.79 175 12.58 175 0 175 C0 117.25 0 59.5 0 0 Z " fill="#FEFEFE" transform="translate(147,14)"/>
<path d="M0 0 C-0.59878115 3.61398585 -1.58591066 6.57778722 -3.1796875 9.87109375 C-3.61410156 10.77537109 -4.04851562 11.67964844 -4.49609375 12.61132812 C-4.95113281 13.54396484 -5.40617188 14.47660156 -5.875 15.4375 C-6.32230469 16.36626953 -6.76960937 17.29503906 -7.23046875 18.25195312 C-9.4507538 22.8529863 -11.70009279 27.4382635 -14 32 C-16.6241503 31.47516994 -18.44140287 30.75477618 -20.8125 29.4375 C-27.38654915 26.56313219 -35.69013793 27.07785956 -42.57421875 28.55078125 C-46.49575476 30.12686525 -48.72836853 32.49677511 -50.9375 36.0625 C-52.94244981 40.85051434 -53.4251681 45.38397513 -53.625 50.515625 C-53.68118752 51.75122917 -53.68118752 51.75122917 -53.73851013 53.01179504 C-54.14503099 62.90117338 -54.10928132 72.79192785 -54.0625 82.6875 C-54.05746528 84.57617066 -54.05290592 86.46484265 -54.04882812 88.35351562 C-54.0388656 92.90240529 -54.01926592 97.45110307 -54 102 C-66.54 102 -79.08 102 -92 102 C-92 67.35 -92 32.7 -92 -3 C-79.79 -3 -67.58 -3 -55 -3 C-54.06508817 1.67455917 -53.92027988 5.2965127 -54 10 C-53.0409375 8.700625 -53.0409375 8.700625 -52.0625 7.375 C-38.82926607 -8.48238796 -17.30441032 -9.25681709 0 0 Z " fill="#FEB202" transform="translate(839,87)"/>
<path d="M0 0 C117.15 0 234.3 0 355 0 C353.68 0.99 352.36 1.98 351 3 C350.01 2.67 349.02 2.34 348 2 C346.07242458 1.903078 344.14163335 1.86620679 342.21162891 1.8613348 C340.9969175 1.85586036 339.78220609 1.85038591 338.53068525 1.84474558 C337.17571508 1.84366931 335.82074483 1.84268463 334.46577454 1.84178162 C333.03187823 1.83721728 331.59798326 1.83221745 330.16408986 1.82681805 C326.21452471 1.81321288 322.26496818 1.80581171 318.3153857 1.79939139 C314.05976464 1.79139788 309.80416159 1.7776965 305.54855347 1.76467896 C298.17231624 1.7429013 290.7960772 1.72476153 283.4198246 1.70907402 C272.75492614 1.68638713 262.09004761 1.65824267 251.42516603 1.62875474 C234.12321519 1.58106434 216.8212562 1.53780408 199.51928711 1.49731445 C182.70938483 1.45796689 165.89948979 1.41654244 149.08959961 1.37231445 C148.05390031 1.36959018 147.01820102 1.36686591 145.9511169 1.36405908 C140.75545598 1.35037973 135.55979518 1.33665943 130.36413443 1.32291877 C87.24277135 1.20893125 44.12139251 1.10220049 1 1 C1 7.27 1 13.54 1 20 C109.24 20 217.48 20 329 20 C329.33 19.01 329.66 18.02 330 17 C330.33 18.32 330.66 19.64 331 21 C221.77 21 112.54 21 0 21 C0 14.07 0 7.14 0 0 Z " fill="#E1AF38" transform="translate(9,200)"/>
<path d="M0 0 C11.88 0 23.76 0 36 0 C37.17990032 3.53970097 37.13218895 6.72727479 37.11352539 10.40893555 C37.11367142 11.16039856 37.11381744 11.91186157 37.1139679 12.68609619 C37.11327129 15.16966642 37.10549067 17.65316163 37.09765625 20.13671875 C37.09579118 21.85878966 37.09436769 23.58086111 37.09336853 25.30293274 C37.0895504 29.83539291 37.07972611 34.36782104 37.06866455 38.90026855 C37.05843531 43.52530484 37.05386766 48.15034629 37.04882812 52.77539062 C37.03810323 61.8502745 37.02103523 70.92513458 37 80 C36.34 80 35.68 80 35 80 C35 53.93 35 27.86 35 1 C23.78 1 12.56 1 1 1 C1 57.76 1 114.52 1 173 C12.22 173 23.44 173 35 173 C35 153.2 35 133.4 35 113 C35.66 112.67 36.32 112.34 37 112 C37 132.79 37 153.58 37 175 C24.46 175 11.92 175 -1 175 C-0.67 117.25 -0.34 59.5 0 0 Z " fill="#E9B330" transform="translate(480,14)"/>
<path d="M0 0 C16.5 0 33 0 50 0 C48.48980758 6.04076966 44.13239495 7.8701063 39 11 C31.77497519 14.61251241 21.86179749 13.80022941 14.16796875 11.82421875 C7.56854818 9.31524985 3.62049828 6.0341638 0 0 Z " fill="#F7B210" transform="translate(367,200)"/>
<path d="M0 0 C12.21 0 24.42 0 37 0 C37 0.99 37 1.98 37 3 C36.505 2.01 36.505 2.01 36 1 C24.78 1 13.56 1 2 1 C2 34.66 2 68.32 2 103 C13.22 103 24.44 103 36 103 C36 88.81 36 74.62 36 60 C36.33 60 36.66 60 37 60 C37.33 74.85 37.66 89.7 38 105 C25.46 105 12.92 105 0 105 C0 70.35 0 35.7 0 0 Z " fill="#EBB631" transform="translate(747,84)"/>
<path d="M0 0 C3.63 0.66 7.26 1.32 11 2 C11 2.33 11 2.66 11 3 C8.03 3 5.06 3 2 3 C2.33 4.65 2.66 6.3 3 8 C-1.2837641 10.57025846 -5.1725201 12.58707905 -10 14 C-9.61328125 13.49210938 -9.2265625 12.98421875 -8.828125 12.4609375 C-5.74572807 8.38668017 -2.78428845 4.28352069 0 0 Z " fill="#F3B71F" transform="translate(930,142)"/>
<path d="M0 0 C0 3 0 3 -1.65234375 4.8671875 C-14.3229572 16 -14.3229572 16 -20 16 C-20 15.01 -20 14.02 -20 13 C-18.68 13 -17.36 13 -16 13 C-15.67 12.34 -15.34 11.68 -15 11 C-12.4375 10.375 -12.4375 10.375 -10 10 C-9.67 7.69 -9.34 5.38 -9 3 C-7.68 3 -6.36 3 -5 3 C-4.34 2.34 -3.68 1.68 -3 1 C-2.01 0.67 -1.02 0.34 0 0 Z " fill="#FAB409" transform="translate(948,168)"/>
<path d="M0 0 C2 2 2 2 2.1953125 3.9453125 C2.13020833 5.96354167 2.06510417 7.98177083 2 10 C2.721875 9.0925 3.44375 8.185 4.1875 7.25 C6.52652794 4.4298006 9.05066655 2.19093342 12 0 C12.66 0.33 13.32 0.66 14 1 C12.63875 2.0209375 12.63875 2.0209375 11.25 3.0625 C7.77393779 5.92901576 6.03435118 9.00954191 4 13 C2.68 13 1.36 13 0 13 C0 8.71 0 4.42 0 0 Z " fill="#EFB81E" transform="translate(783,87)"/>
<path d="M0 0 C1.32 2.31 2.64 4.62 4 7 C2.01432292 6.4140625 0.02864583 5.828125 -1.95703125 5.2421875 C-4.31145413 4.73906252 -4.31145413 4.73906252 -7 7 C-9.04296875 7.4140625 -9.04296875 7.4140625 -11.1875 7.625 C-12.445625 7.74875 -13.70375 7.8725 -15 8 C-12.23612808 5.84821844 -9.43466931 4.01629579 -6.375 2.3125 C-5.59898437 1.87550781 -4.82296875 1.43851563 -4.0234375 0.98828125 C-2 0 -2 0 0 0 Z " fill="#FDF5D1" transform="translate(367,199)"/>
<path d="M0 0 C5.28 0.66 10.56 1.32 16 2 C16 2.66 16 3.32 16 4 C14.35 4 12.7 4 11 4 C10.67 4.99 10.34 5.98 10 7 C7.4375 8.1875 7.4375 8.1875 5 9 C5.33 6.69 5.66 4.38 6 2 C4.02 2 2.04 2 0 2 C0 1.34 0 0.68 0 0 Z " fill="#F5B71A" transform="translate(892,159)"/>
<path d="M0 0 C0.99 0 1.98 0 3 0 C1.81656042 7.33732539 -0.59891181 12.97242269 -5 19 C-5.66 19.33 -6.32 19.66 -7 20 C-7 19.01 -7 18.02 -7 17 C-6.34 17 -5.68 17 -5 17 C-5 15.68 -5 14.36 -5 13 C-4.34 13 -3.68 13 -3 13 C-2.95101562 12.31292969 -2.90203125 11.62585938 -2.8515625 10.91796875 C-2.77679687 10.01691406 -2.70203125 9.11585938 -2.625 8.1875 C-2.55539062 7.29417969 -2.48578125 6.40085938 -2.4140625 5.48046875 C-2 3 -2 3 0 0 Z " fill="#EEB526" transform="translate(956,148)"/>
<path d="M0 0 C0 0.66 0 1.32 0 2 C0.639375 2.12375 1.27875 2.2475 1.9375 2.375 C2.9584375 2.684375 2.9584375 2.684375 4 3 C4.33 3.66 4.66 4.32 5 5 C4.2265625 4.76023437 3.453125 4.52046875 2.65625 4.2734375 C-5.04641279 2.08084785 -9.7386761 1.33412842 -17.04296875 5.03515625 C-18.72506889 5.97189465 -20.36731372 6.97957107 -22 8 C-21.70123405 5.11192917 -21.2193272 4.17944953 -18.9375 2.3125 C-12.91321382 -0.37920234 -6.47924425 -0.11570079 0 0 Z " fill="#E8B52B" transform="translate(544,109)"/>
<path d="M0 0 C0 0.33 0 0.66 0 1 C-1.30195312 1.04898438 -2.60390625 1.09796875 -3.9453125 1.1484375 C-5.67189471 1.22350629 -7.39845622 1.29905233 -9.125 1.375 C-10.40890625 1.42140625 -10.40890625 1.42140625 -11.71875 1.46875 C-16.4875872 1.68885018 -20.51576807 2.19160483 -25 4 C-25.33 3.34 -25.66 2.68 -26 2 C-17.20957011 -1.20345384 -9.17870448 -2.04337407 0 0 Z " fill="#F0B82E" transform="translate(827,82)"/>
<path d="M0 0 C3.375 0.25 3.375 0.25 7 1 C8.0625 2.9375 8.0625 2.9375 9 5 C12.04199472 6.29231642 12.04199472 6.29231642 15 7 C15 7.66 15 8.32 15 9 C9.26800429 7.53025751 4.66416601 4.55513098 0 1 C0 0.67 0 0.34 0 0 Z " fill="#F1B61D" transform="translate(626,178)"/>
<path d="M0 0 C0 0.66 0 1.32 0 2 C-7.70979976 5.53365822 -15.65554156 6.13922455 -24 7 C-21.28523485 5.19015657 -19.68908906 4.50635562 -16.62109375 3.7109375 C-15.78255859 3.49179688 -14.94402344 3.27265625 -14.08007812 3.046875 C-13.20802734 2.82515625 -12.33597656 2.6034375 -11.4375 2.375 C-10.56158203 2.14554687 -9.68566406 1.91609375 -8.78320312 1.6796875 C-2.28941127 0 -2.28941127 0 0 0 Z " fill="#F0BA30" transform="translate(914,116)"/>
<path d="M0 0 C0.33 1.32 0.66 2.64 1 4 C0.34 4 -0.32 4 -1 4 C-0.79375 5.11375 -0.5875 6.2275 -0.375 7.375 C-0.25125 8.57125 -0.1275 9.7675 0 11 C-0.66 11.66 -1.32 12.32 -2 13 C-2.6425235 15.06874034 -2.6425235 15.06874034 -3 17 C-3.66 17 -4.32 17 -5 17 C-4.69343615 10.37822074 -3.25711277 5.77874846 0 0 Z " fill="#F4BE22" transform="translate(612,111)"/>
<path d="M0 0 C5.61 0.66 11.22 1.32 17 2 C17 2.66 17 3.32 17 4 C19.64 4 22.28 4 25 4 C25 4.33 25 4.66 25 5 C16.1204955 5.75214626 8.40813341 3.51122918 0 1 C0 0.67 0 0.34 0 0 Z " fill="#EEB42B" transform="translate(877,187)"/>
<path d="M0 0 C1.65 0 3.3 0 5 0 C4.72285156 0.71285156 4.44570313 1.42570312 4.16015625 2.16015625 C2.15081553 7.47311053 0.50362719 12.33419408 0 18 C-0.33 18 -0.66 18 -1 18 C-0.505 9.09 -0.505 9.09 0 0 Z " fill="#EFB524" transform="translate(645,122)"/>
<path d="M0 0 C2.71745018 2.71745018 3.14227955 5.31720161 4.1875 9 C4.55230469 10.258125 4.91710937 11.51625 5.29296875 12.8125 C6 16 6 16 5 18 C4.34 17.67 3.68 17.34 3 17 C2.66073053 14.66752239 2.32759934 12.33414529 2 10 C1.34 9.34 0.68 8.68 0 8 C-1.105817 4.98413546 -0.97687451 3.03916514 0 0 Z " fill="#F0B621" transform="translate(949,109)"/>
<path d="M0 0 C0.57492187 0.29132813 1.14984375 0.58265625 1.7421875 0.8828125 C3.17257024 1.59057974 4.61445418 2.27592471 6.0703125 2.9296875 C7.08738281 3.39761719 7.08738281 3.39761719 8.125 3.875 C8.80820312 4.18179688 9.49140625 4.48859375 10.1953125 4.8046875 C12.37775735 6.25020292 13.02820858 7.6055861 14 10 C8.97619887 8.43006215 4.9530017 5.39884258 1 2 C0.67 1.34 0.34 0.68 0 0 Z " fill="#F2B925" transform="translate(858,175)"/>
<path d="M0 0 C1.74965358 -0.05429959 3.49979787 -0.09292823 5.25 -0.125 C6.22453125 -0.14820312 7.1990625 -0.17140625 8.203125 -0.1953125 C11.06627213 0.00462794 12.65155238 0.37332298 15 2 C15.33 2.99 15.66 3.98 16 5 C15.21625 4.690625 14.4325 4.38125 13.625 4.0625 C9.10148422 2.73664193 4.68568186 2.35188915 0 2 C0 1.34 0 0.68 0 0 Z " fill="#F1B627" transform="translate(893,103)"/>
<path d="M0 0 C0.66 0.33 1.32 0.66 2 1 C0 4 0 4 -2 4.9375 C-4.17269875 5.83959209 -4.17269875 5.83959209 -5 8.0625 C-6 10 -6 10 -8.125 10.75 C-9.053125 10.87375 -9.053125 10.87375 -10 11 C-8.55218207 7.55571735 -6.72305391 5.63869038 -3.875 3.25 C-3.15054688 2.63640625 -2.42609375 2.0228125 -1.6796875 1.390625 C-0.84824219 0.70226562 -0.84824219 0.70226562 0 0 Z " fill="#F7BD26" transform="translate(865,91)"/>
<path d="M0 0 C1 2 1 2 0.375 4.9375 C-1.22279992 8.49623618 -2.45062331 9.49151491 -6 11 C-6.66 10.67 -7.32 10.34 -8 10 C-5.36 6.7 -2.72 3.4 0 0 Z " fill="#F3B924" transform="translate(621,99)"/>
<path d="M0 0 C1.07765625 0.01804687 2.1553125 0.03609375 3.265625 0.0546875 C4.49539063 0.08949219 4.49539063 0.08949219 5.75 0.125 C5.75 0.785 5.75 1.445 5.75 2.125 C4.76 2.455 3.77 2.785 2.75 3.125 C2.75 2.465 2.75 1.805 2.75 1.125 C2.18796875 1.46273437 1.6259375 1.80046875 1.046875 2.1484375 C-1.64726644 3.2939058 -3.13038233 3.1720026 -6 2.75 C-6.79921875 2.63914062 -7.5984375 2.52828125 -8.421875 2.4140625 C-9.02515625 2.31867188 -9.6284375 2.22328125 -10.25 2.125 C-6.7733662 -0.01836161 -4.03770805 -0.08777626 0 0 Z " fill="#F9B517" transform="translate(656.25,82.875)"/>
<path d="M0 0 C0.99 0.33 1.98 0.66 3 1 C-1.46825784 4.60636039 -5.32146365 7.58036591 -11 9 C-11 8.01 -11 7.02 -11 6 C-9.68 6 -8.36 6 -7 6 C-6.67 5.34 -6.34 4.68 -6 4 C-4.33333333 3.33333333 -2.66666667 2.66666667 -1 2 C-0.67 1.34 -0.34 0.68 0 0 Z " fill="#EFBA26" transform="translate(939,175)"/>
<path d="M0 0 C0.66 0 1.32 0 2 0 C0.49776416 4.20626034 -2.28550034 5.73900021 -6 8 C-6.33 6.35 -6.66 4.7 -7 3 C-6.34 3 -5.68 3 -5 3 C-4.67 2.34 -4.34 1.68 -4 1 C-3.01 1.33 -2.02 1.66 -1 2 C-0.67 1.34 -0.34 0.68 0 0 Z " fill="#EFB115" transform="translate(717,171)"/>
<path d="M0 0 C0.66 0 1.32 0 2 0 C1.22095672 10.55808656 1.22095672 10.55808656 -1 15 C-1.33 15 -1.66 15 -2 15 C-2 12.69 -2 10.38 -2 8 C-1.34 8 -0.68 8 0 8 C-0.2784375 6.2984375 -0.2784375 6.2984375 -0.5625 4.5625 C-0.7790625 2.7990625 -0.7790625 2.7990625 -1 1 C-0.67 0.67 -0.34 0.34 0 0 Z " fill="#EEB325" transform="translate(729,144)"/>
<path d="M0 0 C0.88365234 0.00451172 1.76730469 0.00902344 2.67773438 0.01367188 C4.84768559 0.02540134 7.01760172 0.04333505 9.1875 0.0625 C9.1875 0.3925 9.1875 0.7225 9.1875 1.0625 C8.06730469 1.12308594 6.94710937 1.18367188 5.79296875 1.24609375 C4.32030016 1.33051424 2.84764456 1.41516149 1.375 1.5 C0.63701172 1.53931641 -0.10097656 1.57863281 -0.86132812 1.61914062 C-4.04321342 1.80631035 -6.77412378 2.04970793 -9.8125 3.0625 C-12.5 2.625 -12.5 2.625 -14.8125 2.0625 C-14.8125 1.7325 -14.8125 1.4025 -14.8125 1.0625 C-9.89747242 -0.22985715 -5.03959898 -0.04885517 0 0 Z " fill="#EEB92C" transform="translate(902.8125,79.9375)"/>
<path d="M0 0 C4.75481646 0.57634139 7.97048212 2.55068521 12 5 C12 5.33 12 5.66 12 6 C9.33333333 6 6.66666667 6 4 6 C3.71125 5.38125 3.4225 4.7625 3.125 4.125 C2.06279958 1.86674235 2.06279958 1.86674235 0 0 Z " fill="#F4B71D" transform="translate(566,85)"/>
<path d="M0 0 C4.29 0 8.58 0 13 0 C11.02 0.99 11.02 0.99 9 2 C8.67 2.66 8.34 3.32 8 4 C7.34 4 6.68 4 6 4 C6 3.34 6 2.68 6 2 C5.01 2.495 5.01 2.495 4 3 C3.01 3 2.02 3 1 3 C0.67 2.01 0.34 1.02 0 0 Z " fill="#F9B618" transform="translate(368,201)"/>
<path d="M0 0 C2.33944736 0.28730055 4.6739143 0.61936779 7 1 C4.87033995 3.12966005 3.95931796 3.47624662 1.125 4.1875 C0.44695313 4.36667969 -0.23109375 4.54585937 -0.9296875 4.73046875 C-3.22818556 5.02970718 -4.80550964 4.69377386 -7 4 C-6.030625 3.525625 -5.06125 3.05125 -4.0625 2.5625 C-1.19522563 1.29806053 -1.19522563 1.29806053 0 0 Z " fill="#EEB622" transform="translate(689,186)"/>
<path d="M0 0 C1.45880109 0.14107747 2.91703551 0.28802415 4.375 0.4375 C5.59316406 0.55931641 5.59316406 0.55931641 6.8359375 0.68359375 C9 1 9 1 11 2 C10.67 3.32 10.34 4.64 10 6 C6.7 4.35 3.4 2.7 0 1 C0 0.67 0 0.34 0 0 Z " fill="#F0B81B" transform="translate(675,113)"/>
<path d="M0 0 C2.97246802 2.54782974 4.41535288 5.45340883 6 9 C6 9.66 6 10.32 6 11 C5.34 11 4.68 11 4 11 C4 10.01 4 9.02 4 8 C1.525 7.01 1.525 7.01 -1 6 C-0.34 5.67 0.32 5.34 1 5 C0.67 3.35 0.34 1.7 0 0 Z " fill="#F4B819" transform="translate(723,108)"/>
<path d="M0 0 C1.32 1.32 2.64 2.64 4 4 C2.75 5.5 2.75 5.5 1 7 C-0.32 7 -1.64 7 -3 7 C-1.125 2.25 -1.125 2.25 0 0 Z " fill="#F5B818" transform="translate(852,104)"/>
<path d="M0 0 C0.66 0.33 1.32 0.66 2 1 C0.02 3.97 -1.96 6.94 -4 10 C-4 7.16032769 -3.59732819 4.76264289 -3 2 C-2.01 2 -1.02 2 0 2 C0 1.34 0 0.68 0 0 Z " fill="#EAB126" transform="translate(725,160)"/>
<path d="M0 0 C5.94 0.99 5.94 0.99 12 2 C12 2.99 12 3.98 12 5 C9.03 4.505 9.03 4.505 6 4 C6 3.34 6 2.68 6 2 C4.02 2 2.04 2 0 2 C0 1.34 0 0.68 0 0 Z " fill="#F3B91A" transform="translate(660,159)"/>
<path d="M0 0 C7.75 0.75 7.75 0.75 10 3 C9.01 3.33 8.02 3.66 7 4 C7 3.34 7 2.68 7 2 C5.68 2 4.36 2 3 2 C2.67 2.99 2.34 3.98 2 5 C1.34 4.67 0.68 4.34 0 4 C0 2.68 0 1.36 0 0 Z " fill="#F6B71C" transform="translate(913,81)"/>
<path d="M0 0 C0.66 0.33 1.32 0.66 2 1 C1 3 1 3 -1 5 C-3.75372909 5.36933645 -6.20365661 5.18336678 -9 5 C-6.06626269 3.04417512 -3.21783702 1.43775696 0 0 Z " fill="#FEF4C6" transform="translate(409,208)"/>
<path d="M0 0 C1.98 0 3.96 0 6 0 C5.6875 1.875 5.6875 1.875 5 4 C4.01 4.66 3.02 5.32 2 6 C2 4.68 2 3.36 2 2 C1.34 2 0.68 2 0 2 C0 1.34 0 0.68 0 0 Z " fill="#F6B50E" transform="translate(409,201)"/>
<path d="M0 0 C2.31 1.98 4.62 3.96 7 6 C4.53721199 7.231394 2.7204945 7.07159196 0 7 C0 4.69 0 2.38 0 0 Z " fill="#F1B61F" transform="translate(713,96)"/>
<path d="M0 0 C-8.261959 4.40774487 -8.261959 4.40774487 -13 5 C-10.83470418 2.58355702 -8.97842441 1.36405829 -5.9375 0.25 C-4.89916016 -0.14445312 -4.89916016 -0.14445312 -3.83984375 -0.546875 C-2 -1 -2 -1 0 0 Z " fill="#F4C32C" transform="translate(646,86)"/>
<path d="M0 0 C4.455 0.99 4.455 0.99 9 2 C6.64046906 4.35953094 5.22104383 4.49141413 2 5 C1.34 3.35 0.68 1.7 0 0 Z " fill="#F6BD2A" transform="translate(947,145)"/>
<path d="M0 0 C1.73662334 3.22515763 2.8905928 6.51329166 4 10 C3.34 10 2.68 10 2 10 C2 9.01 2 8.02 2 7 C0.68 7 -0.64 7 -2 7 C-2 6.34 -2 5.68 -2 5 C-1.34 5 -0.68 5 0 5 C0 3.35 0 1.7 0 0 Z " fill="#F0B723" transform="translate(645,141)"/>
<path d="M0 0 C-0.33 0.99 -0.66 1.98 -1 3 C-3.97 2.67 -6.94 2.34 -10 2 C-6.3558226 -0.4294516 -4.28758728 -0.16179575 0 0 Z " fill="#F8B61A" transform="translate(893,123)"/>
<path d="M0 0 C0.66 0 1.32 0 2 0 C2 0.66 2 1.32 2 2 C3.32 2 4.64 2 6 2 C5.67 4.31 5.34 6.62 5 9 C3.05731159 6.08596738 1.53604696 3.14191424 0 0 Z " fill="#F1B520" transform="translate(687,120)"/>
<path d="M0 0 C0.33 0.66 0.66 1.32 1 2 C0.67 2.99 0.34 3.98 0 5 C-3.35595828 4.40072174 -5.37801226 3.15377564 -8 1 C-6.865625 1.020625 -5.73125 1.04125 -4.5625 1.0625 C-1.18424326 1.41577477 -1.18424326 1.41577477 0 0 Z " fill="#E9B737" transform="translate(825,114)"/>
<path d="M0 0 C6.15234375 0.5859375 6.15234375 0.5859375 8 1 C8.33 1.66 8.66 2.32 9 3 C7.35 2.67 5.7 2.34 4 2 C4 2.66 4 3.32 4 4 C2.35 3.67 0.7 3.34 -1 3 C-0.67 2.01 -0.34 1.02 0 0 Z " fill="#F6B30D" transform="translate(572,90)"/>
<path d="M0 0 C0.66 0.33 1.32 0.66 2 1 C1.835 1.556875 1.67 2.11375 1.5 2.6875 C0.95958649 5.18691249 0.92917935 7.45045662 1 10 C-0.95418308 7.06872538 -1.64700993 5.44165321 -2 2 C-1.34 1.34 -0.68 0.68 0 0 Z " fill="#FDFAD3" transform="translate(340,212)"/>
<path d="M0 0 C0 0.99 0 1.98 0 3 C-2.5 5.1875 -2.5 5.1875 -5 7 C-4.67 5.02 -4.34 3.04 -4 1 C-2.68 0.67 -1.36 0.34 0 0 Z " fill="#EDB32B" transform="translate(948,168)"/>
<path d="M0 0 C0.86625 0.4640625 0.86625 0.4640625 1.75 0.9375 C3.84294184 1.92583364 5.74535275 2.5168613 8 3 C5.69 3.33 3.38 3.66 1 4 C0.67 2.68 0.34 1.36 0 0 Z " fill="#EFB217" transform="translate(875,123)"/>
<path d="M0 0 C-3.33333333 1.66666667 -6.66666667 3.33333333 -10 5 C-9.8125 3.125 -9.8125 3.125 -9 1 C-5.5637798 -0.95028714 -3.70512932 -1.09810869 0 0 Z " fill="#EBB52D" transform="translate(799,115)"/>
<path d="M0 0 C1.65 0.33 3.3 0.66 5 1 C3.35 2.65 1.7 4.3 0 6 C-1.125 2.25 -1.125 2.25 0 0 Z " fill="#F2B51C" transform="translate(882,106)"/>
<path d="M0 0 C-1.75 3.875 -1.75 3.875 -4 5 C-4.99 4.34 -5.98 3.68 -7 3 C-2.25 0 -2.25 0 0 0 Z " fill="#F4B521" transform="translate(531,85)"/>
</svg>
